<?xml version="1.0" encoding="UTF-8"?>
<svg width="709px" height="62px" viewBox="0 0 709 62" version="1.1" xmlns="http://www.w3.org/2000/svg" xmlns:xlink="http://www.w3.org/1999/xlink">
    <!-- Generator: Sketch 53.2 (72643) - https://sketchapp.com -->
    <title>fn-row</title>
    <desc>Created with Sketch.</desc>
    <defs>
        <path d="M50.58,50.026 C50.58,51.012 49.801,51.813 48.838,51.813 L1.743,51.813 C0.78,51.813 0,51.012 0,50.026 L0,1.786 C0,0.8 0.78,7.10542736e-15 1.743,7.10542736e-15 L48.838,7.10542736e-15 C49.801,7.10542736e-15 50.58,0.8 50.58,1.786 L50.58,50.026 L50.58,50.026 Z" id="path-1"></path>
        <filter x="-14.8%" y="-10.6%" width="129.7%" height="129.0%" filterUnits="objectBoundingBox" id="filter-2">
            <feMorphology radius="0.5" operator="dilate" in="SourceAlpha" result="shadowSpreadOuter1"></feMorphology>
            <feOffset dx="0" dy="2" in="shadowSpreadOuter1" result="shadowOffsetOuter1"></feOffset>
            <feMorphology radius="1" operator="erode" in="SourceAlpha" result="shadowInner"></feMorphology>
            <feOffset dx="0" dy="2" in="shadowInner" result="shadowInner"></feOffset>
            <feComposite in="shadowOffsetOuter1" in2="shadowInner" operator="out" result="shadowOffsetOuter1"></feComposite>
            <feGaussianBlur stdDeviation="2" in="shadowOffsetOuter1" result="shadowBlurOuter1"></feGaussianBlur>
            <feColorMatrix values="0 0 0 0 0   0 0 0 0 0   0 0 0 0 0  0 0 0 0.25 0" type="matrix" in="shadowBlurOuter1"></feColorMatrix>
        </filter>
        <path d="M42.731,38.058 C42.731,41.35 40.388,44.02 37.499,44.02 L13.081,44.02 C10.191,44.02 7.849,41.35 7.849,38.058 L7.849,10.241 C7.849,6.949 10.192,4.281 13.081,4.281 L37.499,4.281 C40.389,4.281 42.731,6.949 42.731,10.241 L42.731,38.058 L42.731,38.058 Z" id="path-3"></path>
        <filter x="-21.5%" y="-13.8%" width="143.0%" height="137.7%" filterUnits="objectBoundingBox" id="filter-4">
            <feMorphology radius="0.5" operator="dilate" in="SourceAlpha" result="shadowSpreadOuter1"></feMorphology>
            <feOffset dx="0" dy="2" in="shadowSpreadOuter1" result="shadowOffsetOuter1"></feOffset>
            <feMorphology radius="1" operator="erode" in="SourceAlpha" result="shadowInner"></feMorphology>
            <feOffset dx="0" dy="2" in="shadowInner" result="shadowInner"></feOffset>
            <feComposite in="shadowOffsetOuter1" in2="shadowInner" operator="out" result="shadowOffsetOuter1"></feComposite>
            <feGaussianBlur stdDeviation="2" in="shadowOffsetOuter1" result="shadowBlurOuter1"></feGaussianBlur>
            <feColorMatrix values="0 0 0 0 0   0 0 0 0 0   0 0 0 0 0  0 0 0 0.25 0" type="matrix" in="shadowBlurOuter1"></feColorMatrix>
        </filter>
        <path d="M104.58,50.026 C104.58,51.012 103.801,51.813 102.838,51.813 L55.743,51.813 C54.78,51.813 54,51.012 54,50.026 L54,1.786 C54,0.8 54.78,7.10542736e-15 55.743,7.10542736e-15 L102.838,7.10542736e-15 C103.801,7.10542736e-15 104.58,0.8 104.58,1.786 L104.58,50.026 L104.58,50.026 Z" id="path-5"></path>
        <filter x="-14.8%" y="-10.6%" width="129.7%" height="129.0%" filterUnits="objectBoundingBox" id="filter-6">
            <feMorphology radius="0.5" operator="dilate" in="SourceAlpha" result="shadowSpreadOuter1"></feMorphology>
            <feOffset dx="0" dy="2" in="shadowSpreadOuter1" result="shadowOffsetOuter1"></feOffset>
            <feMorphology radius="1" operator="erode" in="SourceAlpha" result="shadowInner"></feMorphology>
            <feOffset dx="0" dy="2" in="shadowInner" result="shadowInner"></feOffset>
            <feComposite in="shadowOffsetOuter1" in2="shadowInner" operator="out" result="shadowOffsetOuter1"></feComposite>
            <feGaussianBlur stdDeviation="2" in="shadowOffsetOuter1" result="shadowBlurOuter1"></feGaussianBlur>
            <feColorMatrix values="0 0 0 0 0   0 0 0 0 0   0 0 0 0 0  0 0 0 0.25 0" type="matrix" in="shadowBlurOuter1"></feColorMatrix>
        </filter>
        <path d="M96.731,38.058 C96.731,41.35 94.388,44.02 91.499,44.02 L67.081,44.02 C64.191,44.02 61.849,41.35 61.849,38.058 L61.849,10.241 C61.849,6.949 64.192,4.281 67.081,4.281 L91.499,4.281 C94.389,4.281 96.731,6.949 96.731,10.241 L96.731,38.058 L96.731,38.058 Z" id="path-7"></path>
        <filter x="-21.5%" y="-13.8%" width="143.0%" height="137.7%" filterUnits="objectBoundingBox" id="filter-8">
            <feMorphology radius="0.5" operator="dilate" in="SourceAlpha" result="shadowSpreadOuter1"></feMorphology>
            <feOffset dx="0" dy="2" in="shadowSpreadOuter1" result="shadowOffsetOuter1"></feOffset>
            <feMorphology radius="1" operator="erode" in="SourceAlpha" result="shadowInner"></feMorphology>
            <feOffset dx="0" dy="2" in="shadowInner" result="shadowInner"></feOffset>
            <feComposite in="shadowOffsetOuter1" in2="shadowInner" operator="out" result="shadowOffsetOuter1"></feComposite>
            <feGaussianBlur stdDeviation="2" in="shadowOffsetOuter1" result="shadowBlurOuter1"></feGaussianBlur>
            <feColorMatrix values="0 0 0 0 0   0 0 0 0 0   0 0 0 0 0  0 0 0 0.25 0" type="matrix" in="shadowBlurOuter1"></feColorMatrix>
        </filter>
        <path d="M158.58,50.026 C158.58,51.012 157.801,51.813 156.838,51.813 L109.743,51.813 C108.78,51.813 108,51.012 108,50.026 L108,1.786 C108,0.8 108.78,7.10542736e-15 109.743,7.10542736e-15 L156.838,7.10542736e-15 C157.801,7.10542736e-15 158.58,0.8 158.58,1.786 L158.58,50.026 L158.58,50.026 Z" id="path-9"></path>
        <filter x="-14.8%" y="-10.6%" width="129.7%" height="129.0%" filterUnits="objectBoundingBox" id="filter-10">
            <feMorphology radius="0.5" operator="dilate" in="SourceAlpha" result="shadowSpreadOuter1"></feMorphology>
            <feOffset dx="0" dy="2" in="shadowSpreadOuter1" result="shadowOffsetOuter1"></feOffset>
            <feMorphology radius="1" operator="erode" in="SourceAlpha" result="shadowInner"></feMorphology>
            <feOffset dx="0" dy="2" in="shadowInner" result="shadowInner"></feOffset>
            <feComposite in="shadowOffsetOuter1" in2="shadowInner" operator="out" result="shadowOffsetOuter1"></feComposite>
            <feGaussianBlur stdDeviation="2" in="shadowOffsetOuter1" result="shadowBlurOuter1"></feGaussianBlur>
            <feColorMatrix values="0 0 0 0 0   0 0 0 0 0   0 0 0 0 0  0 0 0 0.25 0" type="matrix" in="shadowBlurOuter1"></feColorMatrix>
        </filter>
        <path d="M150.731,38.058 C150.731,41.35 148.389,44.02 145.499,44.02 L121.082,44.02 C118.192,44.02 115.85,41.35 115.85,38.058 L115.85,10.241 C115.85,6.949 118.193,4.281 121.082,4.281 L145.499,4.281 C148.39,4.281 150.731,6.949 150.731,10.241 L150.731,38.058 L150.731,38.058 Z" id="path-11"></path>
        <filter x="-21.5%" y="-13.8%" width="143.0%" height="137.7%" filterUnits="objectBoundingBox" id="filter-12">
            <feMorphology radius="0.5" operator="dilate" in="SourceAlpha" result="shadowSpreadOuter1"></feMorphology>
            <feOffset dx="0" dy="2" in="shadowSpreadOuter1" result="shadowOffsetOuter1"></feOffset>
            <feMorphology radius="1" operator="erode" in="SourceAlpha" result="shadowInner"></feMorphology>
            <feOffset dx="0" dy="2" in="shadowInner" result="shadowInner"></feOffset>
            <feComposite in="shadowOffsetOuter1" in2="shadowInner" operator="out" result="shadowOffsetOuter1"></feComposite>
            <feGaussianBlur stdDeviation="2" in="shadowOffsetOuter1" result="shadowBlurOuter1"></feGaussianBlur>
            <feColorMatrix values="0 0 0 0 0   0 0 0 0 0   0 0 0 0 0  0 0 0 0.25 0" type="matrix" in="shadowBlurOuter1"></feColorMatrix>
        </filter>
        <path d="M212.579,50.026 C212.579,51.012 211.8,51.813 210.837,51.813 L163.742,51.813 C162.779,51.813 162,51.012 162,50.026 L162,1.786 C162,0.8 162.779,7.10542736e-15 163.742,7.10542736e-15 L210.837,7.10542736e-15 C211.8,7.10542736e-15 212.579,0.8 212.579,1.786 L212.579,50.026 L212.579,50.026 Z" id="path-13"></path>
        <filter x="-14.8%" y="-10.6%" width="129.7%" height="129.0%" filterUnits="objectBoundingBox" id="filter-14">
            <feMorphology radius="0.5" operator="dilate" in="SourceAlpha" result="shadowSpreadOuter1"></feMorphology>
            <feOffset dx="0" dy="2" in="shadowSpreadOuter1" result="shadowOffsetOuter1"></feOffset>
            <feMorphology radius="1" operator="erode" in="SourceAlpha" result="shadowInner"></feMorphology>
            <feOffset dx="0" dy="2" in="shadowInner" result="shadowInner"></feOffset>
            <feComposite in="shadowOffsetOuter1" in2="shadowInner" operator="out" result="shadowOffsetOuter1"></feComposite>
            <feGaussianBlur stdDeviation="2" in="shadowOffsetOuter1" result="shadowBlurOuter1"></feGaussianBlur>
            <feColorMatrix values="0 0 0 0 0   0 0 0 0 0   0 0 0 0 0  0 0 0 0.25 0" type="matrix" in="shadowBlurOuter1"></feColorMatrix>
        </filter>
        <path d="M204.732,38.058 C204.732,41.35 202.388,44.02 199.5,44.02 L175.082,44.02 C172.192,44.02 169.849,41.35 169.849,38.058 L169.849,10.241 C169.849,6.949 172.193,4.281 175.082,4.281 L199.5,4.281 C202.389,4.281 204.732,6.949 204.732,10.241 L204.732,38.058 L204.732,38.058 Z" id="path-15"></path>
        <filter x="-21.5%" y="-13.8%" width="143.0%" height="137.7%" filterUnits="objectBoundingBox" id="filter-16">
            <feMorphology radius="0.5" operator="dilate" in="SourceAlpha" result="shadowSpreadOuter1"></feMorphology>
            <feOffset dx="0" dy="2" in="shadowSpreadOuter1" result="shadowOffsetOuter1"></feOffset>
            <feMorphology radius="1" operator="erode" in="SourceAlpha" result="shadowInner"></feMorphology>
            <feOffset dx="0" dy="2" in="shadowInner" result="shadowInner"></feOffset>
            <feComposite in="shadowOffsetOuter1" in2="shadowInner" operator="out" result="shadowOffsetOuter1"></feComposite>
            <feGaussianBlur stdDeviation="2" in="shadowOffsetOuter1" result="shadowBlurOuter1"></feGaussianBlur>
            <feColorMatrix values="0 0 0 0 0   0 0 0 0 0   0 0 0 0 0  0 0 0 0.25 0" type="matrix" in="shadowBlurOuter1"></feColorMatrix>
        </filter>
        <path d="M536.579,50.026 C536.579,51.012 535.8,51.813 534.837,51.813 L487.743,51.813 C486.78,51.813 485.999,51.012 485.999,50.026 L485.999,1.786 C485.999,0.8 486.78,7.10542736e-15 487.743,7.10542736e-15 L534.837,7.10542736e-15 C535.8,7.10542736e-15 536.579,0.8 536.579,1.786 L536.579,50.026 L536.579,50.026 Z" id="path-17"></path>
        <filter x="-14.8%" y="-10.6%" width="129.7%" height="129.0%" filterUnits="objectBoundingBox" id="filter-18">
            <feMorphology radius="0.5" operator="dilate" in="SourceAlpha" result="shadowSpreadOuter1"></feMorphology>
            <feOffset dx="0" dy="2" in="shadowSpreadOuter1" result="shadowOffsetOuter1"></feOffset>
            <feMorphology radius="1" operator="erode" in="SourceAlpha" result="shadowInner"></feMorphology>
            <feOffset dx="0" dy="2" in="shadowInner" result="shadowInner"></feOffset>
            <feComposite in="shadowOffsetOuter1" in2="shadowInner" operator="out" result="shadowOffsetOuter1"></feComposite>
            <feGaussianBlur stdDeviation="2" in="shadowOffsetOuter1" result="shadowBlurOuter1"></feGaussianBlur>
            <feColorMatrix values="0 0 0 0 0   0 0 0 0 0   0 0 0 0 0  0 0 0 0.25 0" type="matrix" in="shadowBlurOuter1"></feColorMatrix>
        </filter>
        <path d="M528.732,38.058 C528.732,41.35 526.388,44.02 523.5,44.02 L499.082,44.02 C496.191,44.02 493.85,41.35 493.85,38.058 L493.85,10.241 C493.85,6.949 496.192,4.281 499.082,4.281 L523.5,4.281 C526.389,4.281 528.732,6.949 528.732,10.241 L528.732,38.058 L528.732,38.058 Z" id="path-19"></path>
        <filter x="-21.5%" y="-13.8%" width="143.0%" height="137.7%" filterUnits="objectBoundingBox" id="filter-20">
            <feMorphology radius="0.5" operator="dilate" in="SourceAlpha" result="shadowSpreadOuter1"></feMorphology>
            <feOffset dx="0" dy="2" in="shadowSpreadOuter1" result="shadowOffsetOuter1"></feOffset>
            <feMorphology radius="1" operator="erode" in="SourceAlpha" result="shadowInner"></feMorphology>
            <feOffset dx="0" dy="2" in="shadowInner" result="shadowInner"></feOffset>
            <feComposite in="shadowOffsetOuter1" in2="shadowInner" operator="out" result="shadowOffsetOuter1"></feComposite>
            <feGaussianBlur stdDeviation="2" in="shadowOffsetOuter1" result="shadowBlurOuter1"></feGaussianBlur>
            <feColorMatrix values="0 0 0 0 0   0 0 0 0 0   0 0 0 0 0  0 0 0 0.25 0" type="matrix" in="shadowBlurOuter1"></feColorMatrix>
        </filter>
        <path d="M590.579,50.026 C590.579,51.012 589.8,51.813 588.837,51.813 L541.743,51.813 C540.78,51.813 539.999,51.012 539.999,50.026 L539.999,1.786 C539.999,0.8 540.78,7.10542736e-15 541.743,7.10542736e-15 L588.837,7.10542736e-15 C589.8,7.10542736e-15 590.579,0.8 590.579,1.786 L590.579,50.026 L590.579,50.026 Z" id="path-21"></path>
        <filter x="-14.8%" y="-10.6%" width="129.7%" height="129.0%" filterUnits="objectBoundingBox" id="filter-22">
            <feMorphology radius="0.5" operator="dilate" in="SourceAlpha" result="shadowSpreadOuter1"></feMorphology>
            <feOffset dx="0" dy="2" in="shadowSpreadOuter1" result="shadowOffsetOuter1"></feOffset>
            <feMorphology radius="1" operator="erode" in="SourceAlpha" result="shadowInner"></feMorphology>
            <feOffset dx="0" dy="2" in="shadowInner" result="shadowInner"></feOffset>
            <feComposite in="shadowOffsetOuter1" in2="shadowInner" operator="out" result="shadowOffsetOuter1"></feComposite>
            <feGaussianBlur stdDeviation="2" in="shadowOffsetOuter1" result="shadowBlurOuter1"></feGaussianBlur>
            <feColorMatrix values="0 0 0 0 0   0 0 0 0 0   0 0 0 0 0  0 0 0 0.25 0" type="matrix" in="shadowBlurOuter1"></feColorMatrix>
        </filter>
        <path d="M582.732,38.058 C582.732,41.35 580.388,44.02 577.5,44.02 L553.082,44.02 C550.191,44.02 547.85,41.35 547.85,38.058 L547.85,10.241 C547.85,6.949 550.192,4.281 553.082,4.281 L577.5,4.281 C580.389,4.281 582.732,6.949 582.732,10.241 L582.732,38.058 L582.732,38.058 Z" id="path-23"></path>
        <filter x="-21.5%" y="-13.8%" width="143.0%" height="137.7%" filterUnits="objectBoundingBox" id="filter-24">
            <feMorphology radius="0.5" operator="dilate" in="SourceAlpha" result="shadowSpreadOuter1"></feMorphology>
            <feOffset dx="0" dy="2" in="shadowSpreadOuter1" result="shadowOffsetOuter1"></feOffset>
            <feMorphology radius="1" operator="erode" in="SourceAlpha" result="shadowInner"></feMorphology>
            <feOffset dx="0" dy="2" in="shadowInner" result="shadowInner"></feOffset>
            <feComposite in="shadowOffsetOuter1" in2="shadowInner" operator="out" result="shadowOffsetOuter1"></feComposite>
            <feGaussianBlur stdDeviation="2" in="shadowOffsetOuter1" result="shadowBlurOuter1"></feGaussianBlur>
            <feColorMatrix values="0 0 0 0 0   0 0 0 0 0   0 0 0 0 0  0 0 0 0.25 0" type="matrix" in="shadowBlurOuter1"></feColorMatrix>
        </filter>
        <path d="M644.579,50.026 C644.579,51.012 643.8,51.813 642.837,51.813 L595.743,51.813 C594.78,51.813 593.999,51.012 593.999,50.026 L593.999,1.786 C593.999,0.8 594.78,7.10542736e-15 595.743,7.10542736e-15 L642.837,7.10542736e-15 C643.8,7.10542736e-15 644.579,0.8 644.579,1.786 L644.579,50.026 L644.579,50.026 Z" id="path-25"></path>
        <filter x="-14.8%" y="-10.6%" width="129.7%" height="129.0%" filterUnits="objectBoundingBox" id="filter-26">
            <feMorphology radius="0.5" operator="dilate" in="SourceAlpha" result="shadowSpreadOuter1"></feMorphology>
            <feOffset dx="0" dy="2" in="shadowSpreadOuter1" result="shadowOffsetOuter1"></feOffset>
            <feMorphology radius="1" operator="erode" in="SourceAlpha" result="shadowInner"></feMorphology>
            <feOffset dx="0" dy="2" in="shadowInner" result="shadowInner"></feOffset>
            <feComposite in="shadowOffsetOuter1" in2="shadowInner" operator="out" result="shadowOffsetOuter1"></feComposite>
            <feGaussianBlur stdDeviation="2" in="shadowOffsetOuter1" result="shadowBlurOuter1"></feGaussianBlur>
            <feColorMatrix values="0 0 0 0 0   0 0 0 0 0   0 0 0 0 0  0 0 0 0.25 0" type="matrix" in="shadowBlurOuter1"></feColorMatrix>
        </filter>
        <path d="M636.732,38.058 C636.732,41.35 634.388,44.02 631.5,44.02 L607.082,44.02 C604.191,44.02 601.85,41.35 601.85,38.058 L601.85,10.241 C601.85,6.949 604.192,4.281 607.082,4.281 L631.5,4.281 C634.389,4.281 636.732,6.949 636.732,10.241 L636.732,38.058 L636.732,38.058 Z" id="path-27"></path>
        <filter x="-21.5%" y="-13.8%" width="143.0%" height="137.7%" filterUnits="objectBoundingBox" id="filter-28">
            <feMorphology radius="0.5" operator="dilate" in="SourceAlpha" result="shadowSpreadOuter1"></feMorphology>
            <feOffset dx="0" dy="2" in="shadowSpreadOuter1" result="shadowOffsetOuter1"></feOffset>
            <feMorphology radius="1" operator="erode" in="SourceAlpha" result="shadowInner"></feMorphology>
            <feOffset dx="0" dy="2" in="shadowInner" result="shadowInner"></feOffset>
            <feComposite in="shadowOffsetOuter1" in2="shadowInner" operator="out" result="shadowOffsetOuter1"></feComposite>
            <feGaussianBlur stdDeviation="2" in="shadowOffsetOuter1" result="shadowBlurOuter1"></feGaussianBlur>
            <feColorMatrix values="0 0 0 0 0   0 0 0 0 0   0 0 0 0 0  0 0 0 0.25 0" type="matrix" in="shadowBlurOuter1"></feColorMatrix>
        </filter>
        <path d="M698.579,50.026 C698.579,51.012 697.8,51.813 696.837,51.813 L649.743,51.813 C648.78,51.813 647.999,51.012 647.999,50.026 L647.999,1.786 C647.999,0.8 648.78,7.10542736e-15 649.743,7.10542736e-15 L696.837,7.10542736e-15 C697.8,7.10542736e-15 698.579,0.8 698.579,1.786 L698.579,50.026 L698.579,50.026 Z" id="path-29"></path>
        <filter x="-14.8%" y="-10.6%" width="129.7%" height="129.0%" filterUnits="objectBoundingBox" id="filter-30">
            <feMorphology radius="0.5" operator="dilate" in="SourceAlpha" result="shadowSpreadOuter1"></feMorphology>
            <feOffset dx="0" dy="2" in="shadowSpreadOuter1" result="shadowOffsetOuter1"></feOffset>
            <feMorphology radius="1" operator="erode" in="SourceAlpha" result="shadowInner"></feMorphology>
            <feOffset dx="0" dy="2" in="shadowInner" result="shadowInner"></feOffset>
            <feComposite in="shadowOffsetOuter1" in2="shadowInner" operator="out" result="shadowOffsetOuter1"></feComposite>
            <feGaussianBlur stdDeviation="2" in="shadowOffsetOuter1" result="shadowBlurOuter1"></feGaussianBlur>
            <feColorMatrix values="0 0 0 0 0   0 0 0 0 0   0 0 0 0 0  0 0 0 0.25 0" type="matrix" in="shadowBlurOuter1"></feColorMatrix>
        </filter>
        <path d="M690.732,38.058 C690.732,41.35 688.388,44.02 685.5,44.02 L661.082,44.02 C658.191,44.02 655.85,41.35 655.85,38.058 L655.85,10.241 C655.85,6.949 658.192,4.281 661.082,4.281 L685.5,4.281 C688.389,4.281 690.732,6.949 690.732,10.241 L690.732,38.058 L690.732,38.058 Z" id="path-31"></path>
        <filter x="-21.5%" y="-13.8%" width="143.0%" height="137.7%" filterUnits="objectBoundingBox" id="filter-32">
            <feMorphology radius="0.5" operator="dilate" in="SourceAlpha" result="shadowSpreadOuter1"></feMorphology>
            <feOffset dx="0" dy="2" in="shadowSpreadOuter1" result="shadowOffsetOuter1"></feOffset>
            <feMorphology radius="1" operator="erode" in="SourceAlpha" result="shadowInner"></feMorphology>
            <feOffset dx="0" dy="2" in="shadowInner" result="shadowInner"></feOffset>
            <feComposite in="shadowOffsetOuter1" in2="shadowInner" operator="out" result="shadowOffsetOuter1"></feComposite>
            <feGaussianBlur stdDeviation="2" in="shadowOffsetOuter1" result="shadowBlurOuter1"></feGaussianBlur>
            <feColorMatrix values="0 0 0 0 0   0 0 0 0 0   0 0 0 0 0  0 0 0 0.25 0" type="matrix" in="shadowBlurOuter1"></feColorMatrix>
        </filter>
        <path d="M293.579,50.026 C293.579,51.012 292.8,51.813 291.837,51.813 L244.743,51.813 C243.78,51.813 242.999,51.012 242.999,50.026 L242.999,1.786 C242.999,0.8 243.78,0 244.743,0 L291.837,0 C292.8,0 293.579,0.8 293.579,1.786 L293.579,50.026 L293.579,50.026 Z" id="path-33"></path>
        <filter x="-14.8%" y="-10.6%" width="129.7%" height="129.0%" filterUnits="objectBoundingBox" id="filter-34">
            <feMorphology radius="0.5" operator="dilate" in="SourceAlpha" result="shadowSpreadOuter1"></feMorphology>
            <feOffset dx="0" dy="2" in="shadowSpreadOuter1" result="shadowOffsetOuter1"></feOffset>
            <feMorphology radius="1" operator="erode" in="SourceAlpha" result="shadowInner"></feMorphology>
            <feOffset dx="0" dy="2" in="shadowInner" result="shadowInner"></feOffset>
            <feComposite in="shadowOffsetOuter1" in2="shadowInner" operator="out" result="shadowOffsetOuter1"></feComposite>
            <feGaussianBlur stdDeviation="2" in="shadowOffsetOuter1" result="shadowBlurOuter1"></feGaussianBlur>
            <feColorMatrix values="0 0 0 0 0   0 0 0 0 0   0 0 0 0 0  0 0 0 0.25 0" type="matrix" in="shadowBlurOuter1"></feColorMatrix>
        </filter>
        <path d="M285.732,38.058 C285.732,41.35 283.388,44.02 280.5,44.02 L256.082,44.02 C253.191,44.02 250.85,41.35 250.85,38.058 L250.85,10.241 C250.85,6.949 253.192,4.281 256.082,4.281 L280.5,4.281 C283.389,4.281 285.732,6.949 285.732,10.241 L285.732,38.058 L285.732,38.058 Z" id="path-35"></path>
        <filter x="-21.5%" y="-13.8%" width="143.0%" height="137.7%" filterUnits="objectBoundingBox" id="filter-36">
            <feMorphology radius="0.5" operator="dilate" in="SourceAlpha" result="shadowSpreadOuter1"></feMorphology>
            <feOffset dx="0" dy="2" in="shadowSpreadOuter1" result="shadowOffsetOuter1"></feOffset>
            <feMorphology radius="1" operator="erode" in="SourceAlpha" result="shadowInner"></feMorphology>
            <feOffset dx="0" dy="2" in="shadowInner" result="shadowInner"></feOffset>
            <feComposite in="shadowOffsetOuter1" in2="shadowInner" operator="out" result="shadowOffsetOuter1"></feComposite>
            <feGaussianBlur stdDeviation="2" in="shadowOffsetOuter1" result="shadowBlurOuter1"></feGaussianBlur>
            <feColorMatrix values="0 0 0 0 0   0 0 0 0 0   0 0 0 0 0  0 0 0 0.25 0" type="matrix" in="shadowBlurOuter1"></feColorMatrix>
        </filter>
        <path d="M347.579,50.026 C347.579,51.012 346.8,51.813 345.837,51.813 L298.743,51.813 C297.78,51.813 296.999,51.012 296.999,50.026 L296.999,1.786 C296.999,0.8 297.78,0 298.743,0 L345.837,0 C346.8,0 347.579,0.8 347.579,1.786 L347.579,50.026 L347.579,50.026 Z" id="path-37"></path>
        <filter x="-14.8%" y="-10.6%" width="129.7%" height="129.0%" filterUnits="objectBoundingBox" id="filter-38">
            <feMorphology radius="0.5" operator="dilate" in="SourceAlpha" result="shadowSpreadOuter1"></feMorphology>
            <feOffset dx="0" dy="2" in="shadowSpreadOuter1" result="shadowOffsetOuter1"></feOffset>
            <feMorphology radius="1" operator="erode" in="SourceAlpha" result="shadowInner"></feMorphology>
            <feOffset dx="0" dy="2" in="shadowInner" result="shadowInner"></feOffset>
            <feComposite in="shadowOffsetOuter1" in2="shadowInner" operator="out" result="shadowOffsetOuter1"></feComposite>
            <feGaussianBlur stdDeviation="2" in="shadowOffsetOuter1" result="shadowBlurOuter1"></feGaussianBlur>
            <feColorMatrix values="0 0 0 0 0   0 0 0 0 0   0 0 0 0 0  0 0 0 0.25 0" type="matrix" in="shadowBlurOuter1"></feColorMatrix>
        </filter>
        <path d="M339.732,38.058 C339.732,41.35 337.388,44.02 334.5,44.02 L310.082,44.02 C307.191,44.02 304.85,41.35 304.85,38.058 L304.85,10.241 C304.85,6.949 307.192,4.281 310.082,4.281 L334.5,4.281 C337.389,4.281 339.732,6.949 339.732,10.241 L339.732,38.058 L339.732,38.058 Z" id="path-39"></path>
        <filter x="-21.5%" y="-13.8%" width="143.0%" height="137.7%" filterUnits="objectBoundingBox" id="filter-40">
            <feMorphology radius="0.5" operator="dilate" in="SourceAlpha" result="shadowSpreadOuter1"></feMorphology>
            <feOffset dx="0" dy="2" in="shadowSpreadOuter1" result="shadowOffsetOuter1"></feOffset>
            <feMorphology radius="1" operator="erode" in="SourceAlpha" result="shadowInner"></feMorphology>
            <feOffset dx="0" dy="2" in="shadowInner" result="shadowInner"></feOffset>
            <feComposite in="shadowOffsetOuter1" in2="shadowInner" operator="out" result="shadowOffsetOuter1"></feComposite>
            <feGaussianBlur stdDeviation="2" in="shadowOffsetOuter1" result="shadowBlurOuter1"></feGaussianBlur>
            <feColorMatrix values="0 0 0 0 0   0 0 0 0 0   0 0 0 0 0  0 0 0 0.25 0" type="matrix" in="shadowBlurOuter1"></feColorMatrix>
        </filter>
        <path d="M401.579,50.026 C401.579,51.012 400.8,51.813 399.837,51.813 L352.743,51.813 C351.78,51.813 350.999,51.012 350.999,50.026 L350.999,1.786 C350.999,0.8 351.78,0 352.743,0 L399.837,0 C400.8,0 401.579,0.8 401.579,1.786 L401.579,50.026 L401.579,50.026 Z" id="path-41"></path>
        <filter x="-14.8%" y="-10.6%" width="129.7%" height="129.0%" filterUnits="objectBoundingBox" id="filter-42">
            <feMorphology radius="0.5" operator="dilate" in="SourceAlpha" result="shadowSpreadOuter1"></feMorphology>
            <feOffset dx="0" dy="2" in="shadowSpreadOuter1" result="shadowOffsetOuter1"></feOffset>
            <feMorphology radius="1" operator="erode" in="SourceAlpha" result="shadowInner"></feMorphology>
            <feOffset dx="0" dy="2" in="shadowInner" result="shadowInner"></feOffset>
            <feComposite in="shadowOffsetOuter1" in2="shadowInner" operator="out" result="shadowOffsetOuter1"></feComposite>
            <feGaussianBlur stdDeviation="2" in="shadowOffsetOuter1" result="shadowBlurOuter1"></feGaussianBlur>
            <feColorMatrix values="0 0 0 0 0   0 0 0 0 0   0 0 0 0 0  0 0 0 0.25 0" type="matrix" in="shadowBlurOuter1"></feColorMatrix>
        </filter>
        <path d="M393.732,38.058 C393.732,41.35 391.388,44.02 388.5,44.02 L364.082,44.02 C361.191,44.02 358.85,41.35 358.85,38.058 L358.85,10.241 C358.85,6.949 361.192,4.281 364.082,4.281 L388.5,4.281 C391.389,4.281 393.732,6.949 393.732,10.241 L393.732,38.058 L393.732,38.058 Z" id="path-43"></path>
        <filter x="-21.5%" y="-13.8%" width="143.0%" height="137.7%" filterUnits="objectBoundingBox" id="filter-44">
            <feMorphology radius="0.5" operator="dilate" in="SourceAlpha" result="shadowSpreadOuter1"></feMorphology>
            <feOffset dx="0" dy="2" in="shadowSpreadOuter1" result="shadowOffsetOuter1"></feOffset>
            <feMorphology radius="1" operator="erode" in="SourceAlpha" result="shadowInner"></feMorphology>
            <feOffset dx="0" dy="2" in="shadowInner" result="shadowInner"></feOffset>
            <feComposite in="shadowOffsetOuter1" in2="shadowInner" operator="out" result="shadowOffsetOuter1"></feComposite>
            <feGaussianBlur stdDeviation="2" in="shadowOffsetOuter1" result="shadowBlurOuter1"></feGaussianBlur>
            <feColorMatrix values="0 0 0 0 0   0 0 0 0 0   0 0 0 0 0  0 0 0 0.25 0" type="matrix" in="shadowBlurOuter1"></feColorMatrix>
        </filter>
        <path d="M455.579,50.026 C455.579,51.012 454.8,51.813 453.837,51.813 L406.743,51.813 C405.78,51.813 404.999,51.012 404.999,50.026 L404.999,1.786 C404.999,0.8 405.78,0 406.743,0 L453.837,0 C454.8,0 455.579,0.8 455.579,1.786 L455.579,50.026 L455.579,50.026 Z" id="path-45"></path>
        <filter x="-14.8%" y="-10.6%" width="129.7%" height="129.0%" filterUnits="objectBoundingBox" id="filter-46">
            <feMorphology radius="0.5" operator="dilate" in="SourceAlpha" result="shadowSpreadOuter1"></feMorphology>
            <feOffset dx="0" dy="2" in="shadowSpreadOuter1" result="shadowOffsetOuter1"></feOffset>
            <feMorphology radius="1" operator="erode" in="SourceAlpha" result="shadowInner"></feMorphology>
            <feOffset dx="0" dy="2" in="shadowInner" result="shadowInner"></feOffset>
            <feComposite in="shadowOffsetOuter1" in2="shadowInner" operator="out" result="shadowOffsetOuter1"></feComposite>
            <feGaussianBlur stdDeviation="2" in="shadowOffsetOuter1" result="shadowBlurOuter1"></feGaussianBlur>
            <feColorMatrix values="0 0 0 0 0   0 0 0 0 0   0 0 0 0 0  0 0 0 0.25 0" type="matrix" in="shadowBlurOuter1"></feColorMatrix>
        </filter>
        <path d="M447.732,38.058 C447.732,41.35 445.388,44.02 442.5,44.02 L418.082,44.02 C415.191,44.02 412.85,41.35 412.85,38.058 L412.85,10.241 C412.85,6.949 415.192,4.281 418.082,4.281 L442.5,4.281 C445.389,4.281 447.732,6.949 447.732,10.241 L447.732,38.058 L447.732,38.058 Z" id="path-47"></path>
        <filter x="-21.5%" y="-13.8%" width="143.0%" height="137.7%" filterUnits="objectBoundingBox" id="filter-48">
            <feMorphology radius="0.5" operator="dilate" in="SourceAlpha" result="shadowSpreadOuter1"></feMorphology>
            <feOffset dx="0" dy="2" in="shadowSpreadOuter1" result="shadowOffsetOuter1"></feOffset>
            <feMorphology radius="1" operator="erode" in="SourceAlpha" result="shadowInner"></feMorphology>
            <feOffset dx="0" dy="2" in="shadowInner" result="shadowInner"></feOffset>
            <feComposite in="shadowOffsetOuter1" in2="shadowInner" operator="out" result="shadowOffsetOuter1"></feComposite>
            <feGaussianBlur stdDeviation="2" in="shadowOffsetOuter1" result="shadowBlurOuter1"></feGaussianBlur>
            <feColorMatrix values="0 0 0 0 0   0 0 0 0 0   0 0 0 0 0  0 0 0 0.25 0" type="matrix" in="shadowBlurOuter1"></feColorMatrix>
        </filter>
    </defs>
    <g id="Page-1" stroke="none" stroke-width="1" fill="none" fill-rule="evenodd">
        <g id="keyboard-layout" transform="translate(-103.000000, 3.000000)">
            <g id="fn-row" transform="translate(108.152000, 0.193000)">
                <g id="f1">
                    <use fill="black" fill-opacity="1" filter="url(#filter-2)" xlink:href="#path-1"></use>
                    <use stroke="#444444" stroke-width="1" xlink:href="#path-1"></use>
                </g>
                <g id="f1-face">
                    <use fill="black" fill-opacity="1" filter="url(#filter-4)" xlink:href="#path-3"></use>
                    <use stroke="#444444" stroke-width="1" xlink:href="#path-3"></use>
                </g>
                <g id="f2">
                    <use fill="black" fill-opacity="1" filter="url(#filter-6)" xlink:href="#path-5"></use>
                    <use stroke="#444444" stroke-width="1" xlink:href="#path-5"></use>
                </g>
                <g id="f2-face">
                    <use fill="black" fill-opacity="1" filter="url(#filter-8)" xlink:href="#path-7"></use>
                    <use stroke="#444444" stroke-width="1" xlink:href="#path-7"></use>
                </g>
                <g id="f3">
                    <use fill="black" fill-opacity="1" filter="url(#filter-10)" xlink:href="#path-9"></use>
                    <use stroke="#444444" stroke-width="1" xlink:href="#path-9"></use>
                </g>
                <g id="f3-face">
                    <use fill="black" fill-opacity="1" filter="url(#filter-12)" xlink:href="#path-11"></use>
                    <use stroke="#444444" stroke-width="1" xlink:href="#path-11"></use>
                </g>
                <g id="f4">
                    <use fill="black" fill-opacity="1" filter="url(#filter-14)" xlink:href="#path-13"></use>
                    <use stroke="#444444" stroke-width="1" xlink:href="#path-13"></use>
                </g>
                <g id="f4-face">
                    <use fill="black" fill-opacity="1" filter="url(#filter-16)" xlink:href="#path-15"></use>
                    <use stroke="#444444" stroke-width="1" xlink:href="#path-15"></use>
                </g>
                <g id="f9">
                    <use fill="black" fill-opacity="1" filter="url(#filter-18)" xlink:href="#path-17"></use>
                    <use stroke="#444444" stroke-width="1" xlink:href="#path-17"></use>
                </g>
                <g id="f9-face">
                    <use fill="black" fill-opacity="1" filter="url(#filter-20)" xlink:href="#path-19"></use>
                    <use stroke="#444444" stroke-width="1" xlink:href="#path-19"></use>
                </g>
                <g id="f10">
                    <use fill="black" fill-opacity="1" filter="url(#filter-22)" xlink:href="#path-21"></use>
                    <use stroke="#444444" stroke-width="1" xlink:href="#path-21"></use>
                </g>
                <g id="f10-face">
                    <use fill="black" fill-opacity="1" filter="url(#filter-24)" xlink:href="#path-23"></use>
                    <use stroke="#444444" stroke-width="1" xlink:href="#path-23"></use>
                </g>
                <g id="f11">
                    <use fill="black" fill-opacity="1" filter="url(#filter-26)" xlink:href="#path-25"></use>
                    <use stroke="#444444" stroke-width="1" xlink:href="#path-25"></use>
                </g>
                <g id="f11-face">
                    <use fill="black" fill-opacity="1" filter="url(#filter-28)" xlink:href="#path-27"></use>
                    <use stroke="#444444" stroke-width="1" xlink:href="#path-27"></use>
                </g>
                <g id="f12">
                    <use fill="black" fill-opacity="1" filter="url(#filter-30)" xlink:href="#path-29"></use>
                    <use stroke="#444444" stroke-width="1" xlink:href="#path-29"></use>
                </g>
                <g id="f12-face">
                    <use fill="black" fill-opacity="1" filter="url(#filter-32)" xlink:href="#path-31"></use>
                    <use stroke="#444444" stroke-width="1" xlink:href="#path-31"></use>
                </g>
                <g id="f5">
                    <use fill="black" fill-opacity="1" filter="url(#filter-34)" xlink:href="#path-33"></use>
                    <use stroke="#444444" stroke-width="1" xlink:href="#path-33"></use>
                </g>
                <g id="f5-face">
                    <use fill="black" fill-opacity="1" filter="url(#filter-36)" xlink:href="#path-35"></use>
                    <use stroke="#444444" stroke-width="1" xlink:href="#path-35"></use>
                </g>
                <g id="f6">
                    <use fill="black" fill-opacity="1" filter="url(#filter-38)" xlink:href="#path-37"></use>
                    <use stroke="#444444" stroke-width="1" xlink:href="#path-37"></use>
                </g>
                <g id="f6-face">
                    <use fill="black" fill-opacity="1" filter="url(#filter-40)" xlink:href="#path-39"></use>
                    <use stroke="#444444" stroke-width="1" xlink:href="#path-39"></use>
                </g>
                <g id="f7">
                    <use fill="black" fill-opacity="1" filter="url(#filter-42)" xlink:href="#path-41"></use>
                    <use stroke="#444444" stroke-width="1" xlink:href="#path-41"></use>
                </g>
                <g id="f7-face">
                    <use fill="black" fill-opacity="1" filter="url(#filter-44)" xlink:href="#path-43"></use>
                    <use stroke="#444444" stroke-width="1" xlink:href="#path-43"></use>
                </g>
                <g id="f8">
                    <use fill="black" fill-opacity="1" filter="url(#filter-46)" xlink:href="#path-45"></use>
                    <use stroke="#444444" stroke-width="1" xlink:href="#path-45"></use>
                </g>
                <g id="f8-face">
                    <use fill="black" fill-opacity="1" filter="url(#filter-48)" xlink:href="#path-47"></use>
                    <use stroke="#444444" stroke-width="1" xlink:href="#path-47"></use>
                </g>
            </g>
        </g>
    </g>
</svg>