<?xml version="1.0" encoding="UTF-8"?>
<svg width="816px" height="279px" viewBox="0 0 816 279" version="1.1" xmlns="http://www.w3.org/2000/svg" xmlns:xlink="http://www.w3.org/1999/xlink">
    <!-- Generator: Sketch 53.2 (72643) - https://sketchapp.com -->
    <title>modifiers</title>
    <desc>Created with Sketch.</desc>
    <defs>
        <path d="M806.578,50.025 C806.578,51.011 804.968,51.812 802.976,51.812 L705.604,51.812 C703.614,51.812 701.998,51.011 701.998,50.025 L701.998,1.786 C701.998,0.8 703.614,0 705.604,0 L802.976,0 C804.967,0 806.578,0.8 806.578,1.786 L806.578,50.025 L806.578,50.025 Z" id="path-1"></path>
        <filter x="-7.2%" y="-10.6%" width="114.3%" height="129.0%" filterUnits="objectBoundingBox" id="filter-2">
            <feMorphology radius="0.5" operator="dilate" in="SourceAlpha" result="shadowSpreadOuter1"></feMorphology>
            <feOffset dx="0" dy="2" in="shadowSpreadOuter1" result="shadowOffsetOuter1"></feOffset>
            <feMorphology radius="1" operator="erode" in="SourceAlpha" result="shadowInner"></feMorphology>
            <feOffset dx="0" dy="2" in="shadowInner" result="shadowInner"></feOffset>
            <feComposite in="shadowOffsetOuter1" in2="shadowInner" operator="out" result="shadowOffsetOuter1"></feComposite>
            <feGaussianBlur stdDeviation="2" in="shadowOffsetOuter1" result="shadowBlurOuter1"></feGaussianBlur>
            <feColorMatrix values="0 0 0 0 0   0 0 0 0 0   0 0 0 0 0  0 0 0 0.25 0" type="matrix" in="shadowBlurOuter1"></feColorMatrix>
        </filter>
        <path d="M798.733,38.057 C798.733,41.349 792.76,44.019 785.4,44.019 L723.182,44.019 C715.817,44.019 709.85,41.349 709.85,38.057 L709.85,10.24 C709.85,6.948 715.817,4.28 723.182,4.28 L785.4,4.28 C792.76,4.28 798.733,6.948 798.733,10.24 L798.733,38.057 L798.733,38.057 Z" id="path-3"></path>
        <filter x="-8.4%" y="-13.8%" width="116.9%" height="137.7%" filterUnits="objectBoundingBox" id="filter-4">
            <feMorphology radius="0.5" operator="dilate" in="SourceAlpha" result="shadowSpreadOuter1"></feMorphology>
            <feOffset dx="0" dy="2" in="shadowSpreadOuter1" result="shadowOffsetOuter1"></feOffset>
            <feMorphology radius="1" operator="erode" in="SourceAlpha" result="shadowInner"></feMorphology>
            <feOffset dx="0" dy="2" in="shadowInner" result="shadowInner"></feOffset>
            <feComposite in="shadowOffsetOuter1" in2="shadowInner" operator="out" result="shadowOffsetOuter1"></feComposite>
            <feGaussianBlur stdDeviation="2" in="shadowOffsetOuter1" result="shadowBlurOuter1"></feGaussianBlur>
            <feColorMatrix values="0 0 0 0 0   0 0 0 0 0   0 0 0 0 0  0 0 0 0.25 0" type="matrix" in="shadowBlurOuter1"></feColorMatrix>
        </filter>
        <path d="M805.623,104.025 C805.623,105.011 804.442,105.812 802.983,105.812 L731.64,105.812 C730.182,105.812 728.998,105.011 728.998,104.025 L728.998,55.786 C728.998,54.8 730.182,54 731.64,54 L802.983,54 C804.442,54 805.623,54.8 805.623,55.786 L805.623,104.025 L805.623,104.025 Z" id="path-5"></path>
        <filter x="-9.8%" y="-10.6%" width="119.6%" height="129.0%" filterUnits="objectBoundingBox" id="filter-6">
            <feMorphology radius="0.5" operator="dilate" in="SourceAlpha" result="shadowSpreadOuter1"></feMorphology>
            <feOffset dx="0" dy="2" in="shadowSpreadOuter1" result="shadowOffsetOuter1"></feOffset>
            <feMorphology radius="1" operator="erode" in="SourceAlpha" result="shadowInner"></feMorphology>
            <feOffset dx="0" dy="2" in="shadowInner" result="shadowInner"></feOffset>
            <feComposite in="shadowOffsetOuter1" in2="shadowInner" operator="out" result="shadowOffsetOuter1"></feComposite>
            <feGaussianBlur stdDeviation="2" in="shadowOffsetOuter1" result="shadowBlurOuter1"></feGaussianBlur>
            <feColorMatrix values="0 0 0 0 0   0 0 0 0 0   0 0 0 0 0  0 0 0 0.25 0" type="matrix" in="shadowBlurOuter1"></feColorMatrix>
        </filter>
        <path d="M798.289,92.057 C798.289,95.349 794.161,98.019 789.073,98.019 L746.065,98.019 C740.973,98.019 736.848,95.349 736.848,92.057 L736.848,64.24 C736.848,60.948 740.973,58.28 746.065,58.28 L789.073,58.28 C794.161,58.28 798.289,60.948 798.289,64.24 L798.289,92.057 L798.289,92.057 Z" id="path-7"></path>
        <filter x="-12.2%" y="-13.8%" width="124.4%" height="137.7%" filterUnits="objectBoundingBox" id="filter-8">
            <feMorphology radius="0.5" operator="dilate" in="SourceAlpha" result="shadowSpreadOuter1"></feMorphology>
            <feOffset dx="0" dy="2" in="shadowSpreadOuter1" result="shadowOffsetOuter1"></feOffset>
            <feMorphology radius="1" operator="erode" in="SourceAlpha" result="shadowInner"></feMorphology>
            <feOffset dx="0" dy="2" in="shadowInner" result="shadowInner"></feOffset>
            <feComposite in="shadowOffsetOuter1" in2="shadowInner" operator="out" result="shadowOffsetOuter1"></feComposite>
            <feGaussianBlur stdDeviation="2" in="shadowOffsetOuter1" result="shadowBlurOuter1"></feGaussianBlur>
            <feColorMatrix values="0 0 0 0 0   0 0 0 0 0   0 0 0 0 0  0 0 0 0.25 0" type="matrix" in="shadowBlurOuter1"></feColorMatrix>
        </filter>
        <path d="M118.08,211.025 C118.08,212.011 116.261,212.812 114.013,212.812 L4.069,212.812 C1.821,212.812 7.10542736e-15,212.011 7.10542736e-15,211.025 L7.10542736e-15,162.786 C7.10542736e-15,161.8 1.822,161 4.069,161 L114.012,161 C116.26,161 118.079,161.8 118.079,162.786 L118.079,211.025 L118.08,211.025 Z" id="path-9"></path>
        <filter x="-6.4%" y="-10.6%" width="112.7%" height="129.0%" filterUnits="objectBoundingBox" id="filter-10">
            <feMorphology radius="0.5" operator="dilate" in="SourceAlpha" result="shadowSpreadOuter1"></feMorphology>
            <feOffset dx="0" dy="2" in="shadowSpreadOuter1" result="shadowOffsetOuter1"></feOffset>
            <feMorphology radius="1" operator="erode" in="SourceAlpha" result="shadowInner"></feMorphology>
            <feOffset dx="0" dy="2" in="shadowInner" result="shadowInner"></feOffset>
            <feComposite in="shadowOffsetOuter1" in2="shadowInner" operator="out" result="shadowOffsetOuter1"></feComposite>
            <feGaussianBlur stdDeviation="2" in="shadowOffsetOuter1" result="shadowBlurOuter1"></feGaussianBlur>
            <feColorMatrix values="0 0 0 0 0   0 0 0 0 0   0 0 0 0 0  0 0 0 0.25 0" type="matrix" in="shadowBlurOuter1"></feColorMatrix>
        </filter>
        <path d="M110.231,200.057 C110.231,203.349 103.34,206.019 94.84,206.019 L23.014,206.019 C14.514,206.019 7.623,203.349 7.623,200.057 L7.623,172.24 C7.623,168.949 14.514,166.281 23.014,166.281 L94.84,166.281 C103.34,166.281 110.231,168.949 110.231,172.24 L110.231,200.057 L110.231,200.057 Z" id="path-11"></path>
        <filter x="-7.3%" y="-13.8%" width="114.6%" height="137.7%" filterUnits="objectBoundingBox" id="filter-12">
            <feMorphology radius="0.5" operator="dilate" in="SourceAlpha" result="shadowSpreadOuter1"></feMorphology>
            <feOffset dx="0" dy="2" in="shadowSpreadOuter1" result="shadowOffsetOuter1"></feOffset>
            <feMorphology radius="1" operator="erode" in="SourceAlpha" result="shadowInner"></feMorphology>
            <feOffset dx="0" dy="2" in="shadowInner" result="shadowInner"></feOffset>
            <feComposite in="shadowOffsetOuter1" in2="shadowInner" operator="out" result="shadowOffsetOuter1"></feComposite>
            <feGaussianBlur stdDeviation="2" in="shadowOffsetOuter1" result="shadowBlurOuter1"></feGaussianBlur>
            <feColorMatrix values="0 0 0 0 0   0 0 0 0 0   0 0 0 0 0  0 0 0 0.25 0" type="matrix" in="shadowBlurOuter1"></feColorMatrix>
        </filter>
        <path d="M77.58,101.025 C77.58,102.011 76.385,102.812 74.908,102.812 L2.674,102.812 C1.197,102.812 1.42108547e-14,102.011 1.42108547e-14,101.025 L1.42108547e-14,52.786 C1.42108547e-14,51.8 1.197,51 2.674,51 L74.908,51 C76.385,51 77.58,51.8 77.58,52.786 L77.58,101.025 L77.58,101.025 Z" id="path-13"></path>
        <filter x="-9.7%" y="-10.6%" width="119.3%" height="129.0%" filterUnits="objectBoundingBox" id="filter-14">
            <feMorphology radius="0.5" operator="dilate" in="SourceAlpha" result="shadowSpreadOuter1"></feMorphology>
            <feOffset dx="0" dy="2" in="shadowSpreadOuter1" result="shadowOffsetOuter1"></feOffset>
            <feMorphology radius="1" operator="erode" in="SourceAlpha" result="shadowInner"></feMorphology>
            <feOffset dx="0" dy="2" in="shadowInner" result="shadowInner"></feOffset>
            <feComposite in="shadowOffsetOuter1" in2="shadowInner" operator="out" result="shadowOffsetOuter1"></feComposite>
            <feGaussianBlur stdDeviation="2" in="shadowOffsetOuter1" result="shadowBlurOuter1"></feGaussianBlur>
            <feColorMatrix values="0 0 0 0 0   0 0 0 0 0   0 0 0 0 0  0 0 0 0.25 0" type="matrix" in="shadowBlurOuter1"></feColorMatrix>
        </filter>
        <path d="M69.731,92.057 C69.731,95.349 65.56,98.019 60.415,98.019 L16.939,98.019 C11.794,98.019 7.623,95.349 7.623,92.057 L7.623,64.24 C7.623,60.948 11.794,58.28 16.939,58.28 L60.415,58.28 C65.56,58.28 69.731,60.948 69.731,64.24 L69.731,92.057 L69.731,92.057 Z" id="path-15"></path>
        <filter x="-12.1%" y="-13.8%" width="124.2%" height="137.7%" filterUnits="objectBoundingBox" id="filter-16">
            <feMorphology radius="0.5" operator="dilate" in="SourceAlpha" result="shadowSpreadOuter1"></feMorphology>
            <feOffset dx="0" dy="2" in="shadowSpreadOuter1" result="shadowOffsetOuter1"></feOffset>
            <feMorphology radius="1" operator="erode" in="SourceAlpha" result="shadowInner"></feMorphology>
            <feOffset dx="0" dy="2" in="shadowInner" result="shadowInner"></feOffset>
            <feComposite in="shadowOffsetOuter1" in2="shadowInner" operator="out" result="shadowOffsetOuter1"></feComposite>
            <feGaussianBlur stdDeviation="2" in="shadowOffsetOuter1" result="shadowBlurOuter1"></feGaussianBlur>
            <feColorMatrix values="0 0 0 0 0   0 0 0 0 0   0 0 0 0 0  0 0 0 0.25 0" type="matrix" in="shadowBlurOuter1"></feColorMatrix>
        </filter>
        <path d="M65.016,266.025 C65.016,267.011 64.014,267.812 62.776,267.812 L2.241,267.812 C1.003,267.812 7.10542736e-15,267.011 7.10542736e-15,266.025 L7.10542736e-15,217.786 C7.10542736e-15,216.8 1.003,216 2.241,216 L62.777,216 C64.015,216 65.017,216.8 65.017,217.786 L65.017,266.025 L65.016,266.025 Z" id="path-17"></path>
        <filter x="-11.5%" y="-10.6%" width="123.1%" height="129.0%" filterUnits="objectBoundingBox" id="filter-18">
            <feMorphology radius="0.5" operator="dilate" in="SourceAlpha" result="shadowSpreadOuter1"></feMorphology>
            <feOffset dx="0" dy="2" in="shadowSpreadOuter1" result="shadowOffsetOuter1"></feOffset>
            <feMorphology radius="1" operator="erode" in="SourceAlpha" result="shadowInner"></feMorphology>
            <feOffset dx="0" dy="2" in="shadowInner" result="shadowInner"></feOffset>
            <feComposite in="shadowOffsetOuter1" in2="shadowInner" operator="out" result="shadowOffsetOuter1"></feComposite>
            <feGaussianBlur stdDeviation="2" in="shadowOffsetOuter1" result="shadowBlurOuter1"></feGaussianBlur>
            <feColorMatrix values="0 0 0 0 0   0 0 0 0 0   0 0 0 0 0  0 0 0 0.25 0" type="matrix" in="shadowBlurOuter1"></feColorMatrix>
        </filter>
        <path d="M54.999,254.057 C54.999,257.349 51.817,260.019 47.893,260.019 L14.729,260.019 C10.805,260.019 7.623,257.349 7.623,254.057 L7.623,226.24 C7.623,222.949 10.805,220.281 14.729,220.281 L47.892,220.281 C51.816,220.281 54.998,222.949 54.998,226.24 L54.998,254.057 L54.999,254.057 Z" id="path-19"></path>
        <filter x="-15.8%" y="-13.8%" width="131.7%" height="137.7%" filterUnits="objectBoundingBox" id="filter-20">
            <feMorphology radius="0.5" operator="dilate" in="SourceAlpha" result="shadowSpreadOuter1"></feMorphology>
            <feOffset dx="0" dy="2" in="shadowSpreadOuter1" result="shadowOffsetOuter1"></feOffset>
            <feMorphology radius="1" operator="erode" in="SourceAlpha" result="shadowInner"></feMorphology>
            <feOffset dx="0" dy="2" in="shadowInner" result="shadowInner"></feOffset>
            <feComposite in="shadowOffsetOuter1" in2="shadowInner" operator="out" result="shadowOffsetOuter1"></feComposite>
            <feGaussianBlur stdDeviation="2" in="shadowOffsetOuter1" result="shadowBlurOuter1"></feGaussianBlur>
            <feColorMatrix values="0 0 0 0 0   0 0 0 0 0   0 0 0 0 0  0 0 0 0.25 0" type="matrix" in="shadowBlurOuter1"></feColorMatrix>
        </filter>
        <path d="M91.08,158.025 C91.08,159.011 89.677,159.812 87.943,159.812 L3.139,159.812 C1.405,159.812 7.10542736e-15,159.011 7.10542736e-15,158.025 L7.10542736e-15,109.786 C7.10542736e-15,108.8 1.405,108 3.139,108 L87.943,108 C89.677,108 91.08,108.8 91.08,109.786 L91.08,158.025 L91.08,158.025 Z" id="path-21"></path>
        <filter x="-8.2%" y="-10.6%" width="116.5%" height="129.0%" filterUnits="objectBoundingBox" id="filter-22">
            <feMorphology radius="0.5" operator="dilate" in="SourceAlpha" result="shadowSpreadOuter1"></feMorphology>
            <feOffset dx="0" dy="2" in="shadowSpreadOuter1" result="shadowOffsetOuter1"></feOffset>
            <feMorphology radius="1" operator="erode" in="SourceAlpha" result="shadowInner"></feMorphology>
            <feOffset dx="0" dy="2" in="shadowInner" result="shadowInner"></feOffset>
            <feComposite in="shadowOffsetOuter1" in2="shadowInner" operator="out" result="shadowOffsetOuter1"></feComposite>
            <feGaussianBlur stdDeviation="2" in="shadowOffsetOuter1" result="shadowBlurOuter1"></feGaussianBlur>
            <feColorMatrix values="0 0 0 0 0   0 0 0 0 0   0 0 0 0 0  0 0 0 0.25 0" type="matrix" in="shadowBlurOuter1"></feColorMatrix>
        </filter>
        <path d="M83.231,146.057 C83.231,149.349 78.168,152.019 71.923,152.019 L19.156,152.019 C12.911,152.019 7.848,149.349 7.848,146.057 L7.848,118.24 C7.848,114.949 12.911,112.281 19.156,112.281 L71.924,112.281 C78.169,112.281 83.232,114.949 83.232,118.24 L83.232,146.057 L83.231,146.057 Z" id="path-23"></path>
        <filter x="-9.9%" y="-13.8%" width="119.9%" height="137.7%" filterUnits="objectBoundingBox" id="filter-24">
            <feMorphology radius="0.5" operator="dilate" in="SourceAlpha" result="shadowSpreadOuter1"></feMorphology>
            <feOffset dx="0" dy="2" in="shadowSpreadOuter1" result="shadowOffsetOuter1"></feOffset>
            <feMorphology radius="1" operator="erode" in="SourceAlpha" result="shadowInner"></feMorphology>
            <feOffset dx="0" dy="2" in="shadowInner" result="shadowInner"></feOffset>
            <feComposite in="shadowOffsetOuter1" in2="shadowInner" operator="out" result="shadowOffsetOuter1"></feComposite>
            <feGaussianBlur stdDeviation="2" in="shadowOffsetOuter1" result="shadowBlurOuter1"></feGaussianBlur>
            <feColorMatrix values="0 0 0 0 0   0 0 0 0 0   0 0 0 0 0  0 0 0 0.25 0" type="matrix" in="shadowBlurOuter1"></feColorMatrix>
        </filter>
        <path d="M132.552,266.025 C132.552,267.011 131.55,267.812 130.312,267.812 L69.776,267.812 C68.538,267.812 67.535,267.011 67.535,266.025 L67.535,217.786 C67.535,216.8 68.538,216 69.776,216 L130.312,216 C131.55,216 132.552,216.8 132.552,217.786 L132.552,266.025 L132.552,266.025 Z" id="path-25"></path>
        <filter x="-11.5%" y="-10.6%" width="123.1%" height="129.0%" filterUnits="objectBoundingBox" id="filter-26">
            <feMorphology radius="0.5" operator="dilate" in="SourceAlpha" result="shadowSpreadOuter1"></feMorphology>
            <feOffset dx="0" dy="2" in="shadowSpreadOuter1" result="shadowOffsetOuter1"></feOffset>
            <feMorphology radius="1" operator="erode" in="SourceAlpha" result="shadowInner"></feMorphology>
            <feOffset dx="0" dy="2" in="shadowInner" result="shadowInner"></feOffset>
            <feComposite in="shadowOffsetOuter1" in2="shadowInner" operator="out" result="shadowOffsetOuter1"></feComposite>
            <feGaussianBlur stdDeviation="2" in="shadowOffsetOuter1" result="shadowBlurOuter1"></feGaussianBlur>
            <feColorMatrix values="0 0 0 0 0   0 0 0 0 0   0 0 0 0 0  0 0 0 0.25 0" type="matrix" in="shadowBlurOuter1"></feColorMatrix>
        </filter>
        <path d="M122.535,254.057 C122.535,257.349 119.353,260.019 115.429,260.019 L82.266,260.019 C78.342,260.019 75.16,257.349 75.16,254.057 L75.16,226.24 C75.16,222.949 78.342,220.281 82.266,220.281 L115.429,220.281 C119.353,220.281 122.535,222.949 122.535,226.24 L122.535,254.057 L122.535,254.057 Z" id="path-27"></path>
        <filter x="-15.8%" y="-13.8%" width="131.7%" height="137.7%" filterUnits="objectBoundingBox" id="filter-28">
            <feMorphology radius="0.5" operator="dilate" in="SourceAlpha" result="shadowSpreadOuter1"></feMorphology>
            <feOffset dx="0" dy="2" in="shadowSpreadOuter1" result="shadowOffsetOuter1"></feOffset>
            <feMorphology radius="1" operator="erode" in="SourceAlpha" result="shadowInner"></feMorphology>
            <feOffset dx="0" dy="2" in="shadowInner" result="shadowInner"></feOffset>
            <feComposite in="shadowOffsetOuter1" in2="shadowInner" operator="out" result="shadowOffsetOuter1"></feComposite>
            <feGaussianBlur stdDeviation="2" in="shadowOffsetOuter1" result="shadowBlurOuter1"></feGaussianBlur>
            <feColorMatrix values="0 0 0 0 0   0 0 0 0 0   0 0 0 0 0  0 0 0 0.25 0" type="matrix" in="shadowBlurOuter1"></feColorMatrix>
        </filter>
        <path d="M200.088,266.025 C200.088,267.011 199.086,267.812 197.848,267.812 L137.312,267.812 C136.074,267.812 135.071,267.011 135.071,266.025 L135.071,217.786 C135.071,216.8 136.074,216 137.312,216 L197.848,216 C199.086,216 200.088,216.8 200.088,217.786 L200.088,266.025 L200.088,266.025 Z" id="path-29"></path>
        <filter x="-11.5%" y="-10.6%" width="123.1%" height="129.0%" filterUnits="objectBoundingBox" id="filter-30">
            <feMorphology radius="0.5" operator="dilate" in="SourceAlpha" result="shadowSpreadOuter1"></feMorphology>
            <feOffset dx="0" dy="2" in="shadowSpreadOuter1" result="shadowOffsetOuter1"></feOffset>
            <feMorphology radius="1" operator="erode" in="SourceAlpha" result="shadowInner"></feMorphology>
            <feOffset dx="0" dy="2" in="shadowInner" result="shadowInner"></feOffset>
            <feComposite in="shadowOffsetOuter1" in2="shadowInner" operator="out" result="shadowOffsetOuter1"></feComposite>
            <feGaussianBlur stdDeviation="2" in="shadowOffsetOuter1" result="shadowBlurOuter1"></feGaussianBlur>
            <feColorMatrix values="0 0 0 0 0   0 0 0 0 0   0 0 0 0 0  0 0 0 0.25 0" type="matrix" in="shadowBlurOuter1"></feColorMatrix>
        </filter>
        <path d="M190.071,254.057 C190.071,257.349 186.889,260.019 182.965,260.019 L149.802,260.019 C145.878,260.019 142.696,257.349 142.696,254.057 L142.696,226.24 C142.696,222.949 145.878,220.281 149.802,220.281 L182.965,220.281 C186.889,220.281 190.071,222.949 190.071,226.24 L190.071,254.057 L190.071,254.057 Z" id="path-31"></path>
        <filter x="-15.8%" y="-13.8%" width="131.7%" height="137.7%" filterUnits="objectBoundingBox" id="filter-32">
            <feMorphology radius="0.5" operator="dilate" in="SourceAlpha" result="shadowSpreadOuter1"></feMorphology>
            <feOffset dx="0" dy="2" in="shadowSpreadOuter1" result="shadowOffsetOuter1"></feOffset>
            <feMorphology radius="1" operator="erode" in="SourceAlpha" result="shadowInner"></feMorphology>
            <feOffset dx="0" dy="2" in="shadowInner" result="shadowInner"></feOffset>
            <feComposite in="shadowOffsetOuter1" in2="shadowInner" operator="out" result="shadowOffsetOuter1"></feComposite>
            <feGaussianBlur stdDeviation="2" in="shadowOffsetOuter1" result="shadowBlurOuter1"></feGaussianBlur>
            <feColorMatrix values="0 0 0 0 0   0 0 0 0 0   0 0 0 0 0  0 0 0 0.25 0" type="matrix" in="shadowBlurOuter1"></feColorMatrix>
        </filter>
        <path d="M602.427,266.914 C602.427,267.9 601.425,268.701 600.188,268.701 L539.652,268.701 C538.415,268.701 537.411,267.9 537.411,266.914 L537.411,218.675 C537.411,217.689 538.415,216.889 539.652,216.889 L600.188,216.889 C601.425,216.889 602.427,217.689 602.427,218.675 L602.427,266.914 L602.427,266.914 Z" id="path-33"></path>
        <filter x="-11.5%" y="-10.6%" width="123.1%" height="129.0%" filterUnits="objectBoundingBox" id="filter-34">
            <feMorphology radius="0.5" operator="dilate" in="SourceAlpha" result="shadowSpreadOuter1"></feMorphology>
            <feOffset dx="0" dy="2" in="shadowSpreadOuter1" result="shadowOffsetOuter1"></feOffset>
            <feMorphology radius="1" operator="erode" in="SourceAlpha" result="shadowInner"></feMorphology>
            <feOffset dx="0" dy="2" in="shadowInner" result="shadowInner"></feOffset>
            <feComposite in="shadowOffsetOuter1" in2="shadowInner" operator="out" result="shadowOffsetOuter1"></feComposite>
            <feGaussianBlur stdDeviation="2" in="shadowOffsetOuter1" result="shadowBlurOuter1"></feGaussianBlur>
            <feColorMatrix values="0 0 0 0 0   0 0 0 0 0   0 0 0 0 0  0 0 0 0.25 0" type="matrix" in="shadowBlurOuter1"></feColorMatrix>
        </filter>
        <path d="M592.41,254.947 C592.41,258.239 589.227,260.909 585.303,260.909 L552.141,260.909 C548.216,260.909 545.034,258.239 545.034,254.947 L545.034,227.13 C545.034,223.839 548.217,221.171 552.141,221.171 L585.303,221.171 C589.228,221.171 592.41,223.839 592.41,227.13 L592.41,254.947 L592.41,254.947 Z" id="path-35"></path>
        <filter x="-15.8%" y="-13.8%" width="131.7%" height="137.7%" filterUnits="objectBoundingBox" id="filter-36">
            <feMorphology radius="0.5" operator="dilate" in="SourceAlpha" result="shadowSpreadOuter1"></feMorphology>
            <feOffset dx="0" dy="2" in="shadowSpreadOuter1" result="shadowOffsetOuter1"></feOffset>
            <feMorphology radius="1" operator="erode" in="SourceAlpha" result="shadowInner"></feMorphology>
            <feOffset dx="0" dy="2" in="shadowInner" result="shadowInner"></feOffset>
            <feComposite in="shadowOffsetOuter1" in2="shadowInner" operator="out" result="shadowOffsetOuter1"></feComposite>
            <feGaussianBlur stdDeviation="2" in="shadowOffsetOuter1" result="shadowBlurOuter1"></feGaussianBlur>
            <feColorMatrix values="0 0 0 0 0   0 0 0 0 0   0 0 0 0 0  0 0 0 0.25 0" type="matrix" in="shadowBlurOuter1"></feColorMatrix>
        </filter>
        <path d="M669.963,266.914 C669.963,267.9 668.961,268.701 667.724,268.701 L607.188,268.701 C605.951,268.701 604.947,267.9 604.947,266.914 L604.947,218.675 C604.947,217.689 605.951,216.889 607.188,216.889 L667.724,216.889 C668.961,216.889 669.963,217.689 669.963,218.675 L669.963,266.914 L669.963,266.914 Z" id="path-37"></path>
        <filter x="-11.5%" y="-10.6%" width="123.1%" height="129.0%" filterUnits="objectBoundingBox" id="filter-38">
            <feMorphology radius="0.5" operator="dilate" in="SourceAlpha" result="shadowSpreadOuter1"></feMorphology>
            <feOffset dx="0" dy="2" in="shadowSpreadOuter1" result="shadowOffsetOuter1"></feOffset>
            <feMorphology radius="1" operator="erode" in="SourceAlpha" result="shadowInner"></feMorphology>
            <feOffset dx="0" dy="2" in="shadowInner" result="shadowInner"></feOffset>
            <feComposite in="shadowOffsetOuter1" in2="shadowInner" operator="out" result="shadowOffsetOuter1"></feComposite>
            <feGaussianBlur stdDeviation="2" in="shadowOffsetOuter1" result="shadowBlurOuter1"></feGaussianBlur>
            <feColorMatrix values="0 0 0 0 0   0 0 0 0 0   0 0 0 0 0  0 0 0 0.25 0" type="matrix" in="shadowBlurOuter1"></feColorMatrix>
        </filter>
        <path d="M659.947,254.947 C659.947,258.239 656.764,260.909 652.84,260.909 L619.678,260.909 C615.753,260.909 612.571,258.239 612.571,254.947 L612.571,227.13 C612.571,223.839 615.754,221.171 619.678,221.171 L652.84,221.171 C656.765,221.171 659.947,223.839 659.947,227.13 L659.947,254.947 L659.947,254.947 Z" id="path-39"></path>
        <filter x="-15.8%" y="-13.8%" width="131.7%" height="137.7%" filterUnits="objectBoundingBox" id="filter-40">
            <feMorphology radius="0.5" operator="dilate" in="SourceAlpha" result="shadowSpreadOuter1"></feMorphology>
            <feOffset dx="0" dy="2" in="shadowSpreadOuter1" result="shadowOffsetOuter1"></feOffset>
            <feMorphology radius="1" operator="erode" in="SourceAlpha" result="shadowInner"></feMorphology>
            <feOffset dx="0" dy="2" in="shadowInner" result="shadowInner"></feOffset>
            <feComposite in="shadowOffsetOuter1" in2="shadowInner" operator="out" result="shadowOffsetOuter1"></feComposite>
            <feGaussianBlur stdDeviation="2" in="shadowOffsetOuter1" result="shadowBlurOuter1"></feGaussianBlur>
            <feColorMatrix values="0 0 0 0 0   0 0 0 0 0   0 0 0 0 0  0 0 0 0.25 0" type="matrix" in="shadowBlurOuter1"></feColorMatrix>
        </filter>
        <path d="M805.036,266.914 C805.036,267.9 804.034,268.701 802.797,268.701 L742.261,268.701 C741.024,268.701 740.02,267.9 740.02,266.914 L740.02,218.675 C740.02,217.689 741.024,216.889 742.261,216.889 L802.797,216.889 C804.034,216.889 805.036,217.689 805.036,218.675 L805.036,266.914 L805.036,266.914 Z" id="path-41"></path>
        <filter x="-11.5%" y="-10.6%" width="123.1%" height="129.0%" filterUnits="objectBoundingBox" id="filter-42">
            <feMorphology radius="0.5" operator="dilate" in="SourceAlpha" result="shadowSpreadOuter1"></feMorphology>
            <feOffset dx="0" dy="2" in="shadowSpreadOuter1" result="shadowOffsetOuter1"></feOffset>
            <feMorphology radius="1" operator="erode" in="SourceAlpha" result="shadowInner"></feMorphology>
            <feOffset dx="0" dy="2" in="shadowInner" result="shadowInner"></feOffset>
            <feComposite in="shadowOffsetOuter1" in2="shadowInner" operator="out" result="shadowOffsetOuter1"></feComposite>
            <feGaussianBlur stdDeviation="2" in="shadowOffsetOuter1" result="shadowBlurOuter1"></feGaussianBlur>
            <feColorMatrix values="0 0 0 0 0   0 0 0 0 0   0 0 0 0 0  0 0 0 0.25 0" type="matrix" in="shadowBlurOuter1"></feColorMatrix>
        </filter>
        <path d="M795.019,254.947 C795.019,258.239 791.836,260.909 787.912,260.909 L754.75,260.909 C750.825,260.909 747.643,258.239 747.643,254.947 L747.643,227.13 C747.643,223.839 750.826,221.171 754.75,221.171 L787.912,221.171 C791.837,221.171 795.019,223.839 795.019,227.13 L795.019,254.947 L795.019,254.947 Z" id="path-43"></path>
        <filter x="-15.8%" y="-13.8%" width="131.7%" height="137.7%" filterUnits="objectBoundingBox" id="filter-44">
            <feMorphology radius="0.5" operator="dilate" in="SourceAlpha" result="shadowSpreadOuter1"></feMorphology>
            <feOffset dx="0" dy="2" in="shadowSpreadOuter1" result="shadowOffsetOuter1"></feOffset>
            <feMorphology radius="1" operator="erode" in="SourceAlpha" result="shadowInner"></feMorphology>
            <feOffset dx="0" dy="2" in="shadowInner" result="shadowInner"></feOffset>
            <feComposite in="shadowOffsetOuter1" in2="shadowInner" operator="out" result="shadowOffsetOuter1"></feComposite>
            <feGaussianBlur stdDeviation="2" in="shadowOffsetOuter1" result="shadowBlurOuter1"></feGaussianBlur>
            <feColorMatrix values="0 0 0 0 0   0 0 0 0 0   0 0 0 0 0  0 0 0 0.25 0" type="matrix" in="shadowBlurOuter1"></feColorMatrix>
        </filter>
        <path d="M805.623,212.025 C805.623,213.011 803.402,213.812 800.659,213.812 L666.469,213.812 C663.726,213.812 661.499,213.011 661.499,212.025 L661.499,163.786 C661.499,162.8 663.726,162 666.469,162 L800.659,162 C803.402,162 805.623,162.8 805.623,163.786 L805.623,212.025 L805.623,212.025 Z" id="path-45"></path>
        <filter x="-5.2%" y="-10.6%" width="110.4%" height="129.0%" filterUnits="objectBoundingBox" id="filter-46">
            <feMorphology radius="0.5" operator="dilate" in="SourceAlpha" result="shadowSpreadOuter1"></feMorphology>
            <feOffset dx="0" dy="2" in="shadowSpreadOuter1" result="shadowOffsetOuter1"></feOffset>
            <feMorphology radius="1" operator="erode" in="SourceAlpha" result="shadowInner"></feMorphology>
            <feOffset dx="0" dy="2" in="shadowInner" result="shadowInner"></feOffset>
            <feComposite in="shadowOffsetOuter1" in2="shadowInner" operator="out" result="shadowOffsetOuter1"></feComposite>
            <feGaussianBlur stdDeviation="2" in="shadowOffsetOuter1" result="shadowBlurOuter1"></feGaussianBlur>
            <feColorMatrix values="0 0 0 0 0   0 0 0 0 0   0 0 0 0 0  0 0 0 0.25 0" type="matrix" in="shadowBlurOuter1"></feColorMatrix>
        </filter>
        <path d="M798.29,200.057 C798.29,203.349 789.627,206.019 778.949,206.019 L688.69,206.019 C678.005,206.019 669.349,203.349 669.349,200.057 L669.349,172.24 C669.349,168.949 678.005,166.281 688.69,166.281 L778.949,166.281 C789.627,166.281 798.29,168.949 798.29,172.24 L798.29,200.057 L798.29,200.057 Z" id="path-47"></path>
        <filter x="-5.8%" y="-13.8%" width="111.6%" height="137.7%" filterUnits="objectBoundingBox" id="filter-48">
            <feMorphology radius="0.5" operator="dilate" in="SourceAlpha" result="shadowSpreadOuter1"></feMorphology>
            <feOffset dx="0" dy="2" in="shadowSpreadOuter1" result="shadowOffsetOuter1"></feOffset>
            <feMorphology radius="1" operator="erode" in="SourceAlpha" result="shadowInner"></feMorphology>
            <feOffset dx="0" dy="2" in="shadowInner" result="shadowInner"></feOffset>
            <feComposite in="shadowOffsetOuter1" in2="shadowInner" operator="out" result="shadowOffsetOuter1"></feComposite>
            <feGaussianBlur stdDeviation="2" in="shadowOffsetOuter1" result="shadowBlurOuter1"></feGaussianBlur>
            <feColorMatrix values="0 0 0 0 0   0 0 0 0 0   0 0 0 0 0  0 0 0 0.25 0" type="matrix" in="shadowBlurOuter1"></feColorMatrix>
        </filter>
        <path d="M805.623,158.025 C805.623,159.011 803.818,159.812 801.589,159.812 L692.538,159.812 C690.308,159.812 688.499,159.011 688.499,158.025 L688.499,109.786 C688.499,108.8 690.308,108 692.538,108 L801.589,108 C803.818,108 805.623,108.8 805.623,109.786 L805.623,158.025 L805.623,158.025 Z" id="path-49"></path>
        <filter x="-6.4%" y="-10.6%" width="112.8%" height="129.0%" filterUnits="objectBoundingBox" id="filter-50">
            <feMorphology radius="0.5" operator="dilate" in="SourceAlpha" result="shadowSpreadOuter1"></feMorphology>
            <feOffset dx="0" dy="2" in="shadowSpreadOuter1" result="shadowOffsetOuter1"></feOffset>
            <feMorphology radius="1" operator="erode" in="SourceAlpha" result="shadowInner"></feMorphology>
            <feOffset dx="0" dy="2" in="shadowInner" result="shadowInner"></feOffset>
            <feComposite in="shadowOffsetOuter1" in2="shadowInner" operator="out" result="shadowOffsetOuter1"></feComposite>
            <feGaussianBlur stdDeviation="2" in="shadowOffsetOuter1" result="shadowBlurOuter1"></feGaussianBlur>
            <feColorMatrix values="0 0 0 0 0   0 0 0 0 0   0 0 0 0 0  0 0 0 0.25 0" type="matrix" in="shadowBlurOuter1"></feColorMatrix>
        </filter>
        <path d="M798.29,146.057 C798.29,149.349 791.44,152.019 782.999,152.019 L711.641,152.019 C703.194,152.019 696.35,149.349 696.35,146.057 L696.35,118.24 C696.35,114.949 703.194,112.281 711.641,112.281 L782.999,112.281 C791.44,112.281 798.29,114.949 798.29,118.24 L798.29,146.057 L798.29,146.057 Z" id="path-51"></path>
        <filter x="-7.4%" y="-13.8%" width="114.7%" height="137.7%" filterUnits="objectBoundingBox" id="filter-52">
            <feMorphology radius="0.5" operator="dilate" in="SourceAlpha" result="shadowSpreadOuter1"></feMorphology>
            <feOffset dx="0" dy="2" in="shadowSpreadOuter1" result="shadowOffsetOuter1"></feOffset>
            <feMorphology radius="1" operator="erode" in="SourceAlpha" result="shadowInner"></feMorphology>
            <feOffset dx="0" dy="2" in="shadowInner" result="shadowInner"></feOffset>
            <feComposite in="shadowOffsetOuter1" in2="shadowInner" operator="out" result="shadowOffsetOuter1"></feComposite>
            <feGaussianBlur stdDeviation="2" in="shadowOffsetOuter1" result="shadowBlurOuter1"></feGaussianBlur>
            <feColorMatrix values="0 0 0 0 0   0 0 0 0 0   0 0 0 0 0  0 0 0 0.25 0" type="matrix" in="shadowBlurOuter1"></feColorMatrix>
        </filter>
        <path d="M737.499,266.914 C737.499,267.9 736.497,268.701 735.26,268.701 L674.724,268.701 C673.487,268.701 672.483,267.9 672.483,266.914 L672.483,218.675 C672.483,217.689 673.487,216.889 674.724,216.889 L735.26,216.889 C736.497,216.889 737.499,217.689 737.499,218.675 L737.499,266.914 L737.499,266.914 Z" id="path-53"></path>
        <filter x="-11.5%" y="-10.6%" width="123.1%" height="129.0%" filterUnits="objectBoundingBox" id="filter-54">
            <feMorphology radius="0.5" operator="dilate" in="SourceAlpha" result="shadowSpreadOuter1"></feMorphology>
            <feOffset dx="0" dy="2" in="shadowSpreadOuter1" result="shadowOffsetOuter1"></feOffset>
            <feMorphology radius="1" operator="erode" in="SourceAlpha" result="shadowInner"></feMorphology>
            <feOffset dx="0" dy="2" in="shadowInner" result="shadowInner"></feOffset>
            <feComposite in="shadowOffsetOuter1" in2="shadowInner" operator="out" result="shadowOffsetOuter1"></feComposite>
            <feGaussianBlur stdDeviation="2" in="shadowOffsetOuter1" result="shadowBlurOuter1"></feGaussianBlur>
            <feColorMatrix values="0 0 0 0 0   0 0 0 0 0   0 0 0 0 0  0 0 0 0.25 0" type="matrix" in="shadowBlurOuter1"></feColorMatrix>
        </filter>
        <path d="M727.483,254.947 C727.483,258.239 724.3,260.909 720.376,260.909 L687.214,260.909 C683.289,260.909 680.107,258.239 680.107,254.947 L680.107,227.13 C680.107,223.839 683.29,221.171 687.214,221.171 L720.376,221.171 C724.301,221.171 727.483,223.839 727.483,227.13 L727.483,254.947 L727.483,254.947 Z" id="path-55"></path>
        <filter x="-15.8%" y="-13.8%" width="131.7%" height="137.7%" filterUnits="objectBoundingBox" id="filter-56">
            <feMorphology radius="0.5" operator="dilate" in="SourceAlpha" result="shadowSpreadOuter1"></feMorphology>
            <feOffset dx="0" dy="2" in="shadowSpreadOuter1" result="shadowOffsetOuter1"></feOffset>
            <feMorphology radius="1" operator="erode" in="SourceAlpha" result="shadowInner"></feMorphology>
            <feOffset dx="0" dy="2" in="shadowInner" result="shadowInner"></feOffset>
            <feComposite in="shadowOffsetOuter1" in2="shadowInner" operator="out" result="shadowOffsetOuter1"></feComposite>
            <feGaussianBlur stdDeviation="2" in="shadowOffsetOuter1" result="shadowBlurOuter1"></feGaussianBlur>
            <feColorMatrix values="0 0 0 0 0   0 0 0 0 0   0 0 0 0 0  0 0 0 0.25 0" type="matrix" in="shadowBlurOuter1"></feColorMatrix>
        </filter>
    </defs>
    <g id="Page-1" stroke="none" stroke-width="1" fill="none" fill-rule="evenodd">
        <g id="keyboard-layout" transform="translate(5.000000, -105.000000)">
            <g id="modifiers" transform="translate(0.152000, 108.194000)">
                <g id="backspace">
                    <use fill="black" fill-opacity="1" filter="url(#filter-2)" xlink:href="#path-1"></use>
                    <use stroke="#444444" stroke-width="1" xlink:href="#path-1"></use>
                </g>
                <g id="backspace-face">
                    <use fill="black" fill-opacity="1" filter="url(#filter-4)" xlink:href="#path-3"></use>
                    <use stroke="#444444" stroke-width="1" xlink:href="#path-3"></use>
                </g>
                <g id="bslash-pipe">
                    <use fill="black" fill-opacity="1" filter="url(#filter-6)" xlink:href="#path-5"></use>
                    <use stroke="#444444" stroke-width="1" xlink:href="#path-5"></use>
                </g>
                <g id="bslash-pipe-face">
                    <use fill="black" fill-opacity="1" filter="url(#filter-8)" xlink:href="#path-7"></use>
                    <use stroke="#444444" stroke-width="1" xlink:href="#path-7"></use>
                </g>
                <g id="l-shift">
                    <use fill="black" fill-opacity="1" filter="url(#filter-10)" xlink:href="#path-9"></use>
                    <use stroke="#444444" stroke-width="1" xlink:href="#path-9"></use>
                </g>
                <g id="l-shift-face">
                    <use fill="black" fill-opacity="1" filter="url(#filter-12)" xlink:href="#path-11"></use>
                    <use stroke="#444444" stroke-width="1" xlink:href="#path-11"></use>
                </g>
                <g id="tab-profile">
                    <use fill="black" fill-opacity="1" filter="url(#filter-14)" xlink:href="#path-13"></use>
                    <use stroke="#444444" stroke-width="1" xlink:href="#path-13"></use>
                </g>
                <g id="tab">
                    <use fill="black" fill-opacity="1" filter="url(#filter-16)" xlink:href="#path-15"></use>
                    <use stroke="#444444" stroke-width="1" xlink:href="#path-15"></use>
                </g>
                <g id="l-ctrl">
                    <use fill="black" fill-opacity="1" filter="url(#filter-18)" xlink:href="#path-17"></use>
                    <use stroke="#444444" stroke-width="1" xlink:href="#path-17"></use>
                </g>
                <g id="l-ctrl-face">
                    <use fill="black" fill-opacity="1" filter="url(#filter-20)" xlink:href="#path-19"></use>
                    <use stroke="#444444" stroke-width="1" xlink:href="#path-19"></use>
                </g>
                <g id="caps">
                    <use fill="black" fill-opacity="1" filter="url(#filter-22)" xlink:href="#path-21"></use>
                    <use stroke="#444444" stroke-width="1" xlink:href="#path-21"></use>
                </g>
                <g id="caps-face">
                    <use fill="black" fill-opacity="1" filter="url(#filter-24)" xlink:href="#path-23"></use>
                    <use stroke="#444444" stroke-width="1" xlink:href="#path-23"></use>
                </g>
                <g id="l-win">
                    <use fill="black" fill-opacity="1" filter="url(#filter-26)" xlink:href="#path-25"></use>
                    <use stroke="#444444" stroke-width="1" xlink:href="#path-25"></use>
                </g>
                <g id="l-win-face">
                    <use fill="black" fill-opacity="1" filter="url(#filter-28)" xlink:href="#path-27"></use>
                    <use stroke="#444444" stroke-width="1" xlink:href="#path-27"></use>
                </g>
                <g id="l-alt">
                    <use fill="black" fill-opacity="1" filter="url(#filter-30)" xlink:href="#path-29"></use>
                    <use stroke="#444444" stroke-width="1" xlink:href="#path-29"></use>
                </g>
                <g id="l-alt-face">
                    <use fill="black" fill-opacity="1" filter="url(#filter-32)" xlink:href="#path-31"></use>
                    <use stroke="#444444" stroke-width="1" xlink:href="#path-31"></use>
                </g>
                <g id="r-alt">
                    <use fill="black" fill-opacity="1" filter="url(#filter-34)" xlink:href="#path-33"></use>
                    <use stroke="#444444" stroke-width="1" xlink:href="#path-33"></use>
                </g>
                <g id="r-alt-face">
                    <use fill="black" fill-opacity="1" filter="url(#filter-36)" xlink:href="#path-35"></use>
                    <use stroke="#444444" stroke-width="1" xlink:href="#path-35"></use>
                </g>
                <g id="r-win">
                    <use fill="black" fill-opacity="1" filter="url(#filter-38)" xlink:href="#path-37"></use>
                    <use stroke="#444444" stroke-width="1" xlink:href="#path-37"></use>
                </g>
                <g id="r-win-face">
                    <use fill="black" fill-opacity="1" filter="url(#filter-40)" xlink:href="#path-39"></use>
                    <use stroke="#444444" stroke-width="1" xlink:href="#path-39"></use>
                </g>
                <g id="r-ctrl">
                    <use fill="black" fill-opacity="1" filter="url(#filter-42)" xlink:href="#path-41"></use>
                    <use stroke="#444444" stroke-width="1" xlink:href="#path-41"></use>
                </g>
                <g id="r-ctrl-face">
                    <use fill="black" fill-opacity="1" filter="url(#filter-44)" xlink:href="#path-43"></use>
                    <use stroke="#444444" stroke-width="1" xlink:href="#path-43"></use>
                </g>
                <g id="r-shift">
                    <use fill="black" fill-opacity="1" filter="url(#filter-46)" xlink:href="#path-45"></use>
                    <use stroke="#444444" stroke-width="1" xlink:href="#path-45"></use>
                </g>
                <g id="r-shift-face">
                    <use fill="black" fill-opacity="1" filter="url(#filter-48)" xlink:href="#path-47"></use>
                    <use stroke="#444444" stroke-width="1" xlink:href="#path-47"></use>
                </g>
                <g id="enter">
                    <use fill="black" fill-opacity="1" filter="url(#filter-50)" xlink:href="#path-49"></use>
                    <use stroke="#444444" stroke-width="1" xlink:href="#path-49"></use>
                </g>
                <g id="r-enter-face">
                    <use fill="black" fill-opacity="1" filter="url(#filter-52)" xlink:href="#path-51"></use>
                    <use stroke="#444444" stroke-width="1" xlink:href="#path-51"></use>
                </g>
                <g id="menu">
                    <use fill="black" fill-opacity="1" filter="url(#filter-54)" xlink:href="#path-53"></use>
                    <use stroke="#444444" stroke-width="1" xlink:href="#path-53"></use>
                </g>
                <g id="menu-face">
                    <use fill="black" fill-opacity="1" filter="url(#filter-56)" xlink:href="#path-55"></use>
                    <use stroke="#444444" stroke-width="1" xlink:href="#path-55"></use>
                </g>
            </g>
        </g>
    </g>
</svg>