<?xml version="1.0" encoding="UTF-8"?>
<svg width="709px" height="62px" viewBox="0 0 709 62" version="1.1" xmlns="http://www.w3.org/2000/svg" xmlns:xlink="http://www.w3.org/1999/xlink">
    <!-- Generator: Sketch 53.2 (72643) - https://sketchapp.com -->
    <title>num-row</title>
    <desc>Created with Sketch.</desc>
    <defs>
        <path d="M420.732,38.057 C420.732,41.349 418.388,44.019 415.5,44.019 L391.082,44.019 C388.191,44.019 385.85,41.349 385.85,38.057 L385.85,10.24 C385.85,6.948 388.192,4.28 391.082,4.28 L415.5,4.28 C418.389,4.28 420.732,6.948 420.732,10.24 L420.732,38.057 L420.732,38.057 Z" id="path-1"></path>
        <filter x="-21.5%" y="-13.8%" width="143.0%" height="137.7%" filterUnits="objectBoundingBox" id="filter-2">
            <feMorphology radius="0.5" operator="dilate" in="SourceAlpha" result="shadowSpreadOuter1"></feMorphology>
            <feOffset dx="0" dy="2" in="shadowSpreadOuter1" result="shadowOffsetOuter1"></feOffset>
            <feMorphology radius="1" operator="erode" in="SourceAlpha" result="shadowInner"></feMorphology>
            <feOffset dx="0" dy="2" in="shadowInner" result="shadowInner"></feOffset>
            <feComposite in="shadowOffsetOuter1" in2="shadowInner" operator="out" result="shadowOffsetOuter1"></feComposite>
            <feGaussianBlur stdDeviation="2" in="shadowOffsetOuter1" result="shadowBlurOuter1"></feGaussianBlur>
            <feColorMatrix values="0 0 0 0 0   0 0 0 0 0   0 0 0 0 0  0 0 0 0.25 0" type="matrix" in="shadowBlurOuter1"></feColorMatrix>
        </filter>
        <path d="M482.579,50.025 C482.579,51.011 481.8,51.812 480.837,51.812 L433.743,51.812 C432.78,51.812 431.999,51.011 431.999,50.025 L431.999,1.786 C431.999,0.8 432.78,0 433.743,0 L480.837,0 C481.8,0 482.579,0.8 482.579,1.786 L482.579,50.025 L482.579,50.025 Z" id="path-3"></path>
        <filter x="-14.8%" y="-10.6%" width="129.7%" height="129.0%" filterUnits="objectBoundingBox" id="filter-4">
            <feMorphology radius="0.5" operator="dilate" in="SourceAlpha" result="shadowSpreadOuter1"></feMorphology>
            <feOffset dx="0" dy="2" in="shadowSpreadOuter1" result="shadowOffsetOuter1"></feOffset>
            <feMorphology radius="1" operator="erode" in="SourceAlpha" result="shadowInner"></feMorphology>
            <feOffset dx="0" dy="2" in="shadowInner" result="shadowInner"></feOffset>
            <feComposite in="shadowOffsetOuter1" in2="shadowInner" operator="out" result="shadowOffsetOuter1"></feComposite>
            <feGaussianBlur stdDeviation="2" in="shadowOffsetOuter1" result="shadowBlurOuter1"></feGaussianBlur>
            <feColorMatrix values="0 0 0 0 0   0 0 0 0 0   0 0 0 0 0  0 0 0 0.25 0" type="matrix" in="shadowBlurOuter1"></feColorMatrix>
        </filter>
        <path d="M474.732,38.057 C474.732,41.349 472.388,44.019 469.5,44.019 L445.082,44.019 C442.191,44.019 439.85,41.349 439.85,38.057 L439.85,10.24 C439.85,6.948 442.192,4.28 445.082,4.28 L469.5,4.28 C472.389,4.28 474.732,6.948 474.732,10.24 L474.732,38.057 L474.732,38.057 Z" id="path-5"></path>
        <filter x="-21.5%" y="-13.8%" width="143.0%" height="137.7%" filterUnits="objectBoundingBox" id="filter-6">
            <feMorphology radius="0.5" operator="dilate" in="SourceAlpha" result="shadowSpreadOuter1"></feMorphology>
            <feOffset dx="0" dy="2" in="shadowSpreadOuter1" result="shadowOffsetOuter1"></feOffset>
            <feMorphology radius="1" operator="erode" in="SourceAlpha" result="shadowInner"></feMorphology>
            <feOffset dx="0" dy="2" in="shadowInner" result="shadowInner"></feOffset>
            <feComposite in="shadowOffsetOuter1" in2="shadowInner" operator="out" result="shadowOffsetOuter1"></feComposite>
            <feGaussianBlur stdDeviation="2" in="shadowOffsetOuter1" result="shadowBlurOuter1"></feGaussianBlur>
            <feColorMatrix values="0 0 0 0 0   0 0 0 0 0   0 0 0 0 0  0 0 0 0.25 0" type="matrix" in="shadowBlurOuter1"></feColorMatrix>
        </filter>
        <path d="M536.579,50.025 C536.579,51.011 535.8,51.812 534.837,51.812 L487.743,51.812 C486.78,51.812 485.999,51.011 485.999,50.025 L485.999,1.786 C485.999,0.8 486.78,0 487.743,0 L534.837,0 C535.8,0 536.579,0.8 536.579,1.786 L536.579,50.025 L536.579,50.025 Z" id="path-7"></path>
        <filter x="-14.8%" y="-10.6%" width="129.7%" height="129.0%" filterUnits="objectBoundingBox" id="filter-8">
            <feMorphology radius="0.5" operator="dilate" in="SourceAlpha" result="shadowSpreadOuter1"></feMorphology>
            <feOffset dx="0" dy="2" in="shadowSpreadOuter1" result="shadowOffsetOuter1"></feOffset>
            <feMorphology radius="1" operator="erode" in="SourceAlpha" result="shadowInner"></feMorphology>
            <feOffset dx="0" dy="2" in="shadowInner" result="shadowInner"></feOffset>
            <feComposite in="shadowOffsetOuter1" in2="shadowInner" operator="out" result="shadowOffsetOuter1"></feComposite>
            <feGaussianBlur stdDeviation="2" in="shadowOffsetOuter1" result="shadowBlurOuter1"></feGaussianBlur>
            <feColorMatrix values="0 0 0 0 0   0 0 0 0 0   0 0 0 0 0  0 0 0 0.25 0" type="matrix" in="shadowBlurOuter1"></feColorMatrix>
        </filter>
        <path d="M528.732,38.057 C528.732,41.349 526.388,44.019 523.5,44.019 L499.082,44.019 C496.191,44.019 493.85,41.349 493.85,38.057 L493.85,10.24 C493.85,6.948 496.192,4.28 499.082,4.28 L523.5,4.28 C526.389,4.28 528.732,6.948 528.732,10.24 L528.732,38.057 L528.732,38.057 Z" id="path-9"></path>
        <filter x="-21.5%" y="-13.8%" width="143.0%" height="137.7%" filterUnits="objectBoundingBox" id="filter-10">
            <feMorphology radius="0.5" operator="dilate" in="SourceAlpha" result="shadowSpreadOuter1"></feMorphology>
            <feOffset dx="0" dy="2" in="shadowSpreadOuter1" result="shadowOffsetOuter1"></feOffset>
            <feMorphology radius="1" operator="erode" in="SourceAlpha" result="shadowInner"></feMorphology>
            <feOffset dx="0" dy="2" in="shadowInner" result="shadowInner"></feOffset>
            <feComposite in="shadowOffsetOuter1" in2="shadowInner" operator="out" result="shadowOffsetOuter1"></feComposite>
            <feGaussianBlur stdDeviation="2" in="shadowOffsetOuter1" result="shadowBlurOuter1"></feGaussianBlur>
            <feColorMatrix values="0 0 0 0 0   0 0 0 0 0   0 0 0 0 0  0 0 0 0.25 0" type="matrix" in="shadowBlurOuter1"></feColorMatrix>
        </filter>
        <path d="M590.579,50.025 C590.579,51.011 589.8,51.812 588.837,51.812 L541.743,51.812 C540.78,51.812 539.999,51.011 539.999,50.025 L539.999,1.786 C539.999,0.8 540.78,0 541.743,0 L588.837,0 C589.8,0 590.579,0.8 590.579,1.786 L590.579,50.025 L590.579,50.025 Z" id="path-11"></path>
        <filter x="-14.8%" y="-10.6%" width="129.7%" height="129.0%" filterUnits="objectBoundingBox" id="filter-12">
            <feMorphology radius="0.5" operator="dilate" in="SourceAlpha" result="shadowSpreadOuter1"></feMorphology>
            <feOffset dx="0" dy="2" in="shadowSpreadOuter1" result="shadowOffsetOuter1"></feOffset>
            <feMorphology radius="1" operator="erode" in="SourceAlpha" result="shadowInner"></feMorphology>
            <feOffset dx="0" dy="2" in="shadowInner" result="shadowInner"></feOffset>
            <feComposite in="shadowOffsetOuter1" in2="shadowInner" operator="out" result="shadowOffsetOuter1"></feComposite>
            <feGaussianBlur stdDeviation="2" in="shadowOffsetOuter1" result="shadowBlurOuter1"></feGaussianBlur>
            <feColorMatrix values="0 0 0 0 0   0 0 0 0 0   0 0 0 0 0  0 0 0 0.25 0" type="matrix" in="shadowBlurOuter1"></feColorMatrix>
        </filter>
        <path d="M582.732,38.057 C582.732,41.349 580.388,44.019 577.5,44.019 L553.082,44.019 C550.191,44.019 547.85,41.349 547.85,38.057 L547.85,10.24 C547.85,6.948 550.192,4.28 553.082,4.28 L577.5,4.28 C580.389,4.28 582.732,6.948 582.732,10.24 L582.732,38.057 L582.732,38.057 Z" id="path-13"></path>
        <filter x="-21.5%" y="-13.8%" width="143.0%" height="137.7%" filterUnits="objectBoundingBox" id="filter-14">
            <feMorphology radius="0.5" operator="dilate" in="SourceAlpha" result="shadowSpreadOuter1"></feMorphology>
            <feOffset dx="0" dy="2" in="shadowSpreadOuter1" result="shadowOffsetOuter1"></feOffset>
            <feMorphology radius="1" operator="erode" in="SourceAlpha" result="shadowInner"></feMorphology>
            <feOffset dx="0" dy="2" in="shadowInner" result="shadowInner"></feOffset>
            <feComposite in="shadowOffsetOuter1" in2="shadowInner" operator="out" result="shadowOffsetOuter1"></feComposite>
            <feGaussianBlur stdDeviation="2" in="shadowOffsetOuter1" result="shadowBlurOuter1"></feGaussianBlur>
            <feColorMatrix values="0 0 0 0 0   0 0 0 0 0   0 0 0 0 0  0 0 0 0.25 0" type="matrix" in="shadowBlurOuter1"></feColorMatrix>
        </filter>
        <path d="M644.579,50.025 C644.579,51.011 643.8,51.812 642.837,51.812 L595.743,51.812 C594.78,51.812 593.999,51.011 593.999,50.025 L593.999,1.786 C593.999,0.8 594.78,0 595.743,0 L642.837,0 C643.8,0 644.579,0.8 644.579,1.786 L644.579,50.025 L644.579,50.025 Z" id="path-15"></path>
        <filter x="-14.8%" y="-10.6%" width="129.7%" height="129.0%" filterUnits="objectBoundingBox" id="filter-16">
            <feMorphology radius="0.5" operator="dilate" in="SourceAlpha" result="shadowSpreadOuter1"></feMorphology>
            <feOffset dx="0" dy="2" in="shadowSpreadOuter1" result="shadowOffsetOuter1"></feOffset>
            <feMorphology radius="1" operator="erode" in="SourceAlpha" result="shadowInner"></feMorphology>
            <feOffset dx="0" dy="2" in="shadowInner" result="shadowInner"></feOffset>
            <feComposite in="shadowOffsetOuter1" in2="shadowInner" operator="out" result="shadowOffsetOuter1"></feComposite>
            <feGaussianBlur stdDeviation="2" in="shadowOffsetOuter1" result="shadowBlurOuter1"></feGaussianBlur>
            <feColorMatrix values="0 0 0 0 0   0 0 0 0 0   0 0 0 0 0  0 0 0 0.25 0" type="matrix" in="shadowBlurOuter1"></feColorMatrix>
        </filter>
        <path d="M636.732,38.057 C636.732,41.349 634.388,44.019 631.5,44.019 L607.082,44.019 C604.191,44.019 601.85,41.349 601.85,38.057 L601.85,10.24 C601.85,6.948 604.192,4.28 607.082,4.28 L631.5,4.28 C634.389,4.28 636.732,6.948 636.732,10.24 L636.732,38.057 L636.732,38.057 Z" id="path-17"></path>
        <filter x="-21.5%" y="-13.8%" width="143.0%" height="137.7%" filterUnits="objectBoundingBox" id="filter-18">
            <feMorphology radius="0.5" operator="dilate" in="SourceAlpha" result="shadowSpreadOuter1"></feMorphology>
            <feOffset dx="0" dy="2" in="shadowSpreadOuter1" result="shadowOffsetOuter1"></feOffset>
            <feMorphology radius="1" operator="erode" in="SourceAlpha" result="shadowInner"></feMorphology>
            <feOffset dx="0" dy="2" in="shadowInner" result="shadowInner"></feOffset>
            <feComposite in="shadowOffsetOuter1" in2="shadowInner" operator="out" result="shadowOffsetOuter1"></feComposite>
            <feGaussianBlur stdDeviation="2" in="shadowOffsetOuter1" result="shadowBlurOuter1"></feGaussianBlur>
            <feColorMatrix values="0 0 0 0 0   0 0 0 0 0   0 0 0 0 0  0 0 0 0.25 0" type="matrix" in="shadowBlurOuter1"></feColorMatrix>
        </filter>
        <path d="M698.579,50.025 C698.579,51.011 697.8,51.812 696.837,51.812 L649.743,51.812 C648.78,51.812 647.999,51.011 647.999,50.025 L647.999,1.786 C647.999,0.8 648.78,0 649.743,0 L696.837,0 C697.8,0 698.579,0.8 698.579,1.786 L698.579,50.025 L698.579,50.025 Z" id="path-19"></path>
        <filter x="-14.8%" y="-10.6%" width="129.7%" height="129.0%" filterUnits="objectBoundingBox" id="filter-20">
            <feMorphology radius="0.5" operator="dilate" in="SourceAlpha" result="shadowSpreadOuter1"></feMorphology>
            <feOffset dx="0" dy="2" in="shadowSpreadOuter1" result="shadowOffsetOuter1"></feOffset>
            <feMorphology radius="1" operator="erode" in="SourceAlpha" result="shadowInner"></feMorphology>
            <feOffset dx="0" dy="2" in="shadowInner" result="shadowInner"></feOffset>
            <feComposite in="shadowOffsetOuter1" in2="shadowInner" operator="out" result="shadowOffsetOuter1"></feComposite>
            <feGaussianBlur stdDeviation="2" in="shadowOffsetOuter1" result="shadowBlurOuter1"></feGaussianBlur>
            <feColorMatrix values="0 0 0 0 0   0 0 0 0 0   0 0 0 0 0  0 0 0 0.25 0" type="matrix" in="shadowBlurOuter1"></feColorMatrix>
        </filter>
        <path d="M690.732,38.057 C690.732,41.349 688.388,44.019 685.5,44.019 L661.082,44.019 C658.191,44.019 655.85,41.349 655.85,38.057 L655.85,10.24 C655.85,6.948 658.192,4.28 661.082,4.28 L685.5,4.28 C688.389,4.28 690.732,6.948 690.732,10.24 L690.732,38.057 L690.732,38.057 Z" id="path-21"></path>
        <filter x="-21.5%" y="-13.8%" width="143.0%" height="137.7%" filterUnits="objectBoundingBox" id="filter-22">
            <feMorphology radius="0.5" operator="dilate" in="SourceAlpha" result="shadowSpreadOuter1"></feMorphology>
            <feOffset dx="0" dy="2" in="shadowSpreadOuter1" result="shadowOffsetOuter1"></feOffset>
            <feMorphology radius="1" operator="erode" in="SourceAlpha" result="shadowInner"></feMorphology>
            <feOffset dx="0" dy="2" in="shadowInner" result="shadowInner"></feOffset>
            <feComposite in="shadowOffsetOuter1" in2="shadowInner" operator="out" result="shadowOffsetOuter1"></feComposite>
            <feGaussianBlur stdDeviation="2" in="shadowOffsetOuter1" result="shadowBlurOuter1"></feGaussianBlur>
            <feColorMatrix values="0 0 0 0 0   0 0 0 0 0   0 0 0 0 0  0 0 0 0.25 0" type="matrix" in="shadowBlurOuter1"></feColorMatrix>
        </filter>
        <path d="M50.58,50.025 C50.58,51.011 49.801,51.812 48.838,51.812 L1.743,51.812 C0.78,51.812 0,51.011 0,50.025 L0,1.786 C0,0.8 0.78,0 1.743,0 L48.838,0 C49.801,0 50.58,0.8 50.58,1.786 L50.58,50.025 L50.58,50.025 Z" id="path-23"></path>
        <filter x="-14.8%" y="-10.6%" width="129.7%" height="129.0%" filterUnits="objectBoundingBox" id="filter-24">
            <feMorphology radius="0.5" operator="dilate" in="SourceAlpha" result="shadowSpreadOuter1"></feMorphology>
            <feOffset dx="0" dy="2" in="shadowSpreadOuter1" result="shadowOffsetOuter1"></feOffset>
            <feMorphology radius="1" operator="erode" in="SourceAlpha" result="shadowInner"></feMorphology>
            <feOffset dx="0" dy="2" in="shadowInner" result="shadowInner"></feOffset>
            <feComposite in="shadowOffsetOuter1" in2="shadowInner" operator="out" result="shadowOffsetOuter1"></feComposite>
            <feGaussianBlur stdDeviation="2" in="shadowOffsetOuter1" result="shadowBlurOuter1"></feGaussianBlur>
            <feColorMatrix values="0 0 0 0 0   0 0 0 0 0   0 0 0 0 0  0 0 0 0.25 0" type="matrix" in="shadowBlurOuter1"></feColorMatrix>
        </filter>
        <path d="M42.731,38.057 C42.731,41.349 40.388,44.019 37.499,44.019 L13.081,44.019 C10.191,44.019 7.849,41.349 7.849,38.057 L7.849,10.24 C7.849,6.948 10.192,4.28 13.081,4.28 L37.499,4.28 C40.389,4.28 42.731,6.948 42.731,10.24 L42.731,38.057 L42.731,38.057 Z" id="path-25"></path>
        <filter x="-21.5%" y="-13.8%" width="143.0%" height="137.7%" filterUnits="objectBoundingBox" id="filter-26">
            <feMorphology radius="0.5" operator="dilate" in="SourceAlpha" result="shadowSpreadOuter1"></feMorphology>
            <feOffset dx="0" dy="2" in="shadowSpreadOuter1" result="shadowOffsetOuter1"></feOffset>
            <feMorphology radius="1" operator="erode" in="SourceAlpha" result="shadowInner"></feMorphology>
            <feOffset dx="0" dy="2" in="shadowInner" result="shadowInner"></feOffset>
            <feComposite in="shadowOffsetOuter1" in2="shadowInner" operator="out" result="shadowOffsetOuter1"></feComposite>
            <feGaussianBlur stdDeviation="2" in="shadowOffsetOuter1" result="shadowBlurOuter1"></feGaussianBlur>
            <feColorMatrix values="0 0 0 0 0   0 0 0 0 0   0 0 0 0 0  0 0 0 0.25 0" type="matrix" in="shadowBlurOuter1"></feColorMatrix>
        </filter>
        <path d="M104.58,50.025 C104.58,51.011 103.801,51.812 102.838,51.812 L55.743,51.812 C54.78,51.812 54,51.011 54,50.025 L54,1.786 C54,0.8 54.78,0 55.743,0 L102.838,0 C103.801,0 104.58,0.8 104.58,1.786 L104.58,50.025 L104.58,50.025 Z" id="path-27"></path>
        <filter x="-14.8%" y="-10.6%" width="129.7%" height="129.0%" filterUnits="objectBoundingBox" id="filter-28">
            <feMorphology radius="0.5" operator="dilate" in="SourceAlpha" result="shadowSpreadOuter1"></feMorphology>
            <feOffset dx="0" dy="2" in="shadowSpreadOuter1" result="shadowOffsetOuter1"></feOffset>
            <feMorphology radius="1" operator="erode" in="SourceAlpha" result="shadowInner"></feMorphology>
            <feOffset dx="0" dy="2" in="shadowInner" result="shadowInner"></feOffset>
            <feComposite in="shadowOffsetOuter1" in2="shadowInner" operator="out" result="shadowOffsetOuter1"></feComposite>
            <feGaussianBlur stdDeviation="2" in="shadowOffsetOuter1" result="shadowBlurOuter1"></feGaussianBlur>
            <feColorMatrix values="0 0 0 0 0   0 0 0 0 0   0 0 0 0 0  0 0 0 0.25 0" type="matrix" in="shadowBlurOuter1"></feColorMatrix>
        </filter>
        <path d="M96.731,38.057 C96.731,41.349 94.388,44.019 91.499,44.019 L67.081,44.019 C64.191,44.019 61.849,41.349 61.849,38.057 L61.849,10.24 C61.849,6.948 64.192,4.28 67.081,4.28 L91.499,4.28 C94.389,4.28 96.731,6.948 96.731,10.24 L96.731,38.057 L96.731,38.057 Z" id="path-29"></path>
        <filter x="-21.5%" y="-13.8%" width="143.0%" height="137.7%" filterUnits="objectBoundingBox" id="filter-30">
            <feMorphology radius="0.5" operator="dilate" in="SourceAlpha" result="shadowSpreadOuter1"></feMorphology>
            <feOffset dx="0" dy="2" in="shadowSpreadOuter1" result="shadowOffsetOuter1"></feOffset>
            <feMorphology radius="1" operator="erode" in="SourceAlpha" result="shadowInner"></feMorphology>
            <feOffset dx="0" dy="2" in="shadowInner" result="shadowInner"></feOffset>
            <feComposite in="shadowOffsetOuter1" in2="shadowInner" operator="out" result="shadowOffsetOuter1"></feComposite>
            <feGaussianBlur stdDeviation="2" in="shadowOffsetOuter1" result="shadowBlurOuter1"></feGaussianBlur>
            <feColorMatrix values="0 0 0 0 0   0 0 0 0 0   0 0 0 0 0  0 0 0 0.25 0" type="matrix" in="shadowBlurOuter1"></feColorMatrix>
        </filter>
        <path d="M158.58,50.025 C158.58,51.011 157.801,51.812 156.838,51.812 L109.743,51.812 C108.78,51.812 108,51.011 108,50.025 L108,1.786 C108,0.8 108.78,0 109.743,0 L156.838,0 C157.801,0 158.58,0.8 158.58,1.786 L158.58,50.025 L158.58,50.025 Z" id="path-31"></path>
        <filter x="-14.8%" y="-10.6%" width="129.7%" height="129.0%" filterUnits="objectBoundingBox" id="filter-32">
            <feMorphology radius="0.5" operator="dilate" in="SourceAlpha" result="shadowSpreadOuter1"></feMorphology>
            <feOffset dx="0" dy="2" in="shadowSpreadOuter1" result="shadowOffsetOuter1"></feOffset>
            <feMorphology radius="1" operator="erode" in="SourceAlpha" result="shadowInner"></feMorphology>
            <feOffset dx="0" dy="2" in="shadowInner" result="shadowInner"></feOffset>
            <feComposite in="shadowOffsetOuter1" in2="shadowInner" operator="out" result="shadowOffsetOuter1"></feComposite>
            <feGaussianBlur stdDeviation="2" in="shadowOffsetOuter1" result="shadowBlurOuter1"></feGaussianBlur>
            <feColorMatrix values="0 0 0 0 0   0 0 0 0 0   0 0 0 0 0  0 0 0 0.25 0" type="matrix" in="shadowBlurOuter1"></feColorMatrix>
        </filter>
        <path d="M150.731,38.057 C150.731,41.349 148.388,44.019 145.499,44.019 L121.081,44.019 C118.191,44.019 115.849,41.349 115.849,38.057 L115.849,10.24 C115.849,6.948 118.192,4.28 121.081,4.28 L145.499,4.28 C148.389,4.28 150.731,6.948 150.731,10.24 L150.731,38.057 L150.731,38.057 Z" id="path-33"></path>
        <filter x="-21.5%" y="-13.8%" width="143.0%" height="137.7%" filterUnits="objectBoundingBox" id="filter-34">
            <feMorphology radius="0.5" operator="dilate" in="SourceAlpha" result="shadowSpreadOuter1"></feMorphology>
            <feOffset dx="0" dy="2" in="shadowSpreadOuter1" result="shadowOffsetOuter1"></feOffset>
            <feMorphology radius="1" operator="erode" in="SourceAlpha" result="shadowInner"></feMorphology>
            <feOffset dx="0" dy="2" in="shadowInner" result="shadowInner"></feOffset>
            <feComposite in="shadowOffsetOuter1" in2="shadowInner" operator="out" result="shadowOffsetOuter1"></feComposite>
            <feGaussianBlur stdDeviation="2" in="shadowOffsetOuter1" result="shadowBlurOuter1"></feGaussianBlur>
            <feColorMatrix values="0 0 0 0 0   0 0 0 0 0   0 0 0 0 0  0 0 0 0.25 0" type="matrix" in="shadowBlurOuter1"></feColorMatrix>
        </filter>
        <path d="M212.58,50.025 C212.58,51.011 211.801,51.812 210.838,51.812 L163.743,51.812 C162.78,51.812 162,51.011 162,50.025 L162,1.786 C162,0.8 162.78,0 163.743,0 L210.838,0 C211.801,0 212.58,0.8 212.58,1.786 L212.58,50.025 L212.58,50.025 Z" id="path-35"></path>
        <filter x="-14.8%" y="-10.6%" width="129.7%" height="129.0%" filterUnits="objectBoundingBox" id="filter-36">
            <feMorphology radius="0.5" operator="dilate" in="SourceAlpha" result="shadowSpreadOuter1"></feMorphology>
            <feOffset dx="0" dy="2" in="shadowSpreadOuter1" result="shadowOffsetOuter1"></feOffset>
            <feMorphology radius="1" operator="erode" in="SourceAlpha" result="shadowInner"></feMorphology>
            <feOffset dx="0" dy="2" in="shadowInner" result="shadowInner"></feOffset>
            <feComposite in="shadowOffsetOuter1" in2="shadowInner" operator="out" result="shadowOffsetOuter1"></feComposite>
            <feGaussianBlur stdDeviation="2" in="shadowOffsetOuter1" result="shadowBlurOuter1"></feGaussianBlur>
            <feColorMatrix values="0 0 0 0 0   0 0 0 0 0   0 0 0 0 0  0 0 0 0.25 0" type="matrix" in="shadowBlurOuter1"></feColorMatrix>
        </filter>
        <path d="M204.731,38.057 C204.731,41.349 202.388,44.019 199.499,44.019 L175.081,44.019 C172.191,44.019 169.849,41.349 169.849,38.057 L169.849,10.24 C169.849,6.948 172.192,4.28 175.081,4.28 L199.499,4.28 C202.389,4.28 204.731,6.948 204.731,10.24 L204.731,38.057 L204.731,38.057 Z" id="path-37"></path>
        <filter x="-21.5%" y="-13.8%" width="143.0%" height="137.7%" filterUnits="objectBoundingBox" id="filter-38">
            <feMorphology radius="0.5" operator="dilate" in="SourceAlpha" result="shadowSpreadOuter1"></feMorphology>
            <feOffset dx="0" dy="2" in="shadowSpreadOuter1" result="shadowOffsetOuter1"></feOffset>
            <feMorphology radius="1" operator="erode" in="SourceAlpha" result="shadowInner"></feMorphology>
            <feOffset dx="0" dy="2" in="shadowInner" result="shadowInner"></feOffset>
            <feComposite in="shadowOffsetOuter1" in2="shadowInner" operator="out" result="shadowOffsetOuter1"></feComposite>
            <feGaussianBlur stdDeviation="2" in="shadowOffsetOuter1" result="shadowBlurOuter1"></feGaussianBlur>
            <feColorMatrix values="0 0 0 0 0   0 0 0 0 0   0 0 0 0 0  0 0 0 0.25 0" type="matrix" in="shadowBlurOuter1"></feColorMatrix>
        </filter>
        <path d="M266.58,50.025 C266.58,51.011 265.801,51.812 264.838,51.812 L217.743,51.812 C216.78,51.812 216,51.011 216,50.025 L216,1.786 C216,0.8 216.78,0 217.743,0 L264.838,0 C265.801,0 266.58,0.8 266.58,1.786 L266.58,50.025 L266.58,50.025 Z" id="path-39"></path>
        <filter x="-14.8%" y="-10.6%" width="129.7%" height="129.0%" filterUnits="objectBoundingBox" id="filter-40">
            <feMorphology radius="0.5" operator="dilate" in="SourceAlpha" result="shadowSpreadOuter1"></feMorphology>
            <feOffset dx="0" dy="2" in="shadowSpreadOuter1" result="shadowOffsetOuter1"></feOffset>
            <feMorphology radius="1" operator="erode" in="SourceAlpha" result="shadowInner"></feMorphology>
            <feOffset dx="0" dy="2" in="shadowInner" result="shadowInner"></feOffset>
            <feComposite in="shadowOffsetOuter1" in2="shadowInner" operator="out" result="shadowOffsetOuter1"></feComposite>
            <feGaussianBlur stdDeviation="2" in="shadowOffsetOuter1" result="shadowBlurOuter1"></feGaussianBlur>
            <feColorMatrix values="0 0 0 0 0   0 0 0 0 0   0 0 0 0 0  0 0 0 0.25 0" type="matrix" in="shadowBlurOuter1"></feColorMatrix>
        </filter>
        <path d="M258.731,38.057 C258.731,41.349 256.389,44.019 253.499,44.019 L229.082,44.019 C226.192,44.019 223.85,41.349 223.85,38.057 L223.85,10.24 C223.85,6.948 226.193,4.28 229.082,4.28 L253.499,4.28 C256.39,4.28 258.731,6.948 258.731,10.24 L258.731,38.057 L258.731,38.057 Z" id="path-41"></path>
        <filter x="-21.5%" y="-13.8%" width="143.0%" height="137.7%" filterUnits="objectBoundingBox" id="filter-42">
            <feMorphology radius="0.5" operator="dilate" in="SourceAlpha" result="shadowSpreadOuter1"></feMorphology>
            <feOffset dx="0" dy="2" in="shadowSpreadOuter1" result="shadowOffsetOuter1"></feOffset>
            <feMorphology radius="1" operator="erode" in="SourceAlpha" result="shadowInner"></feMorphology>
            <feOffset dx="0" dy="2" in="shadowInner" result="shadowInner"></feOffset>
            <feComposite in="shadowOffsetOuter1" in2="shadowInner" operator="out" result="shadowOffsetOuter1"></feComposite>
            <feGaussianBlur stdDeviation="2" in="shadowOffsetOuter1" result="shadowBlurOuter1"></feGaussianBlur>
            <feColorMatrix values="0 0 0 0 0   0 0 0 0 0   0 0 0 0 0  0 0 0 0.25 0" type="matrix" in="shadowBlurOuter1"></feColorMatrix>
        </filter>
        <path d="M320.579,50.025 C320.579,51.011 319.8,51.812 318.837,51.812 L271.742,51.812 C270.779,51.812 270,51.011 270,50.025 L270,1.786 C270,0.8 270.779,0 271.742,0 L318.837,0 C319.8,0 320.579,0.8 320.579,1.786 L320.579,50.025 L320.579,50.025 Z" id="path-43"></path>
        <filter x="-14.8%" y="-10.6%" width="129.7%" height="129.0%" filterUnits="objectBoundingBox" id="filter-44">
            <feMorphology radius="0.5" operator="dilate" in="SourceAlpha" result="shadowSpreadOuter1"></feMorphology>
            <feOffset dx="0" dy="2" in="shadowSpreadOuter1" result="shadowOffsetOuter1"></feOffset>
            <feMorphology radius="1" operator="erode" in="SourceAlpha" result="shadowInner"></feMorphology>
            <feOffset dx="0" dy="2" in="shadowInner" result="shadowInner"></feOffset>
            <feComposite in="shadowOffsetOuter1" in2="shadowInner" operator="out" result="shadowOffsetOuter1"></feComposite>
            <feGaussianBlur stdDeviation="2" in="shadowOffsetOuter1" result="shadowBlurOuter1"></feGaussianBlur>
            <feColorMatrix values="0 0 0 0 0   0 0 0 0 0   0 0 0 0 0  0 0 0 0.25 0" type="matrix" in="shadowBlurOuter1"></feColorMatrix>
        </filter>
        <path d="M312.732,38.057 C312.732,41.349 310.388,44.019 307.5,44.019 L283.082,44.019 C280.192,44.019 277.849,41.349 277.849,38.057 L277.849,10.24 C277.849,6.948 280.193,4.28 283.082,4.28 L307.5,4.28 C310.389,4.28 312.732,6.948 312.732,10.24 L312.732,38.057 L312.732,38.057 Z" id="path-45"></path>
        <filter x="-21.5%" y="-13.8%" width="143.0%" height="137.7%" filterUnits="objectBoundingBox" id="filter-46">
            <feMorphology radius="0.5" operator="dilate" in="SourceAlpha" result="shadowSpreadOuter1"></feMorphology>
            <feOffset dx="0" dy="2" in="shadowSpreadOuter1" result="shadowOffsetOuter1"></feOffset>
            <feMorphology radius="1" operator="erode" in="SourceAlpha" result="shadowInner"></feMorphology>
            <feOffset dx="0" dy="2" in="shadowInner" result="shadowInner"></feOffset>
            <feComposite in="shadowOffsetOuter1" in2="shadowInner" operator="out" result="shadowOffsetOuter1"></feComposite>
            <feGaussianBlur stdDeviation="2" in="shadowOffsetOuter1" result="shadowBlurOuter1"></feGaussianBlur>
            <feColorMatrix values="0 0 0 0 0   0 0 0 0 0   0 0 0 0 0  0 0 0 0.25 0" type="matrix" in="shadowBlurOuter1"></feColorMatrix>
        </filter>
        <path d="M374.579,50.025 C374.579,51.011 373.8,51.812 372.837,51.812 L325.743,51.812 C324.78,51.812 323.999,51.011 323.999,50.025 L323.999,1.786 C323.999,0.8 324.78,0 325.743,0 L372.837,0 C373.8,0 374.579,0.8 374.579,1.786 L374.579,50.025 L374.579,50.025 Z" id="path-47"></path>
        <filter x="-14.8%" y="-10.6%" width="129.7%" height="129.0%" filterUnits="objectBoundingBox" id="filter-48">
            <feMorphology radius="0.5" operator="dilate" in="SourceAlpha" result="shadowSpreadOuter1"></feMorphology>
            <feOffset dx="0" dy="2" in="shadowSpreadOuter1" result="shadowOffsetOuter1"></feOffset>
            <feMorphology radius="1" operator="erode" in="SourceAlpha" result="shadowInner"></feMorphology>
            <feOffset dx="0" dy="2" in="shadowInner" result="shadowInner"></feOffset>
            <feComposite in="shadowOffsetOuter1" in2="shadowInner" operator="out" result="shadowOffsetOuter1"></feComposite>
            <feGaussianBlur stdDeviation="2" in="shadowOffsetOuter1" result="shadowBlurOuter1"></feGaussianBlur>
            <feColorMatrix values="0 0 0 0 0   0 0 0 0 0   0 0 0 0 0  0 0 0 0.25 0" type="matrix" in="shadowBlurOuter1"></feColorMatrix>
        </filter>
        <path d="M366.732,38.057 C366.732,41.349 364.388,44.019 361.5,44.019 L337.082,44.019 C334.191,44.019 331.85,41.349 331.85,38.057 L331.85,10.24 C331.85,6.948 334.192,4.28 337.082,4.28 L361.5,4.28 C364.389,4.28 366.732,6.948 366.732,10.24 L366.732,38.057 L366.732,38.057 Z" id="path-49"></path>
        <filter x="-21.5%" y="-13.8%" width="143.0%" height="137.7%" filterUnits="objectBoundingBox" id="filter-50">
            <feMorphology radius="0.5" operator="dilate" in="SourceAlpha" result="shadowSpreadOuter1"></feMorphology>
            <feOffset dx="0" dy="2" in="shadowSpreadOuter1" result="shadowOffsetOuter1"></feOffset>
            <feMorphology radius="1" operator="erode" in="SourceAlpha" result="shadowInner"></feMorphology>
            <feOffset dx="0" dy="2" in="shadowInner" result="shadowInner"></feOffset>
            <feComposite in="shadowOffsetOuter1" in2="shadowInner" operator="out" result="shadowOffsetOuter1"></feComposite>
            <feGaussianBlur stdDeviation="2" in="shadowOffsetOuter1" result="shadowBlurOuter1"></feGaussianBlur>
            <feColorMatrix values="0 0 0 0 0   0 0 0 0 0   0 0 0 0 0  0 0 0 0.25 0" type="matrix" in="shadowBlurOuter1"></feColorMatrix>
        </filter>
        <path d="M428.579,50.025 C428.579,51.011 427.8,51.812 426.837,51.812 L379.743,51.812 C378.78,51.812 377.999,51.011 377.999,50.025 L377.999,1.786 C377.999,0.8 378.78,0 379.743,0 L426.837,0 C427.8,0 428.579,0.8 428.579,1.786 L428.579,50.025 L428.579,50.025 Z" id="path-51"></path>
        <filter x="-14.8%" y="-10.6%" width="129.7%" height="129.0%" filterUnits="objectBoundingBox" id="filter-52">
            <feMorphology radius="0.5" operator="dilate" in="SourceAlpha" result="shadowSpreadOuter1"></feMorphology>
            <feOffset dx="0" dy="2" in="shadowSpreadOuter1" result="shadowOffsetOuter1"></feOffset>
            <feMorphology radius="1" operator="erode" in="SourceAlpha" result="shadowInner"></feMorphology>
            <feOffset dx="0" dy="2" in="shadowInner" result="shadowInner"></feOffset>
            <feComposite in="shadowOffsetOuter1" in2="shadowInner" operator="out" result="shadowOffsetOuter1"></feComposite>
            <feGaussianBlur stdDeviation="2" in="shadowOffsetOuter1" result="shadowBlurOuter1"></feGaussianBlur>
            <feColorMatrix values="0 0 0 0 0   0 0 0 0 0   0 0 0 0 0  0 0 0 0.25 0" type="matrix" in="shadowBlurOuter1"></feColorMatrix>
        </filter>
    </defs>
    <g id="Page-1" stroke="none" stroke-width="1" fill="none" fill-rule="evenodd">
        <g id="keyboard-layout" transform="translate(5.000000, -105.000000)">
            <g id="num-row" transform="translate(0.152000, 108.194000)">
                <g id="n7-face">
                    <use fill="black" fill-opacity="1" filter="url(#filter-2)" xlink:href="#path-1"></use>
                    <use stroke="#444444" stroke-width="1" xlink:href="#path-1"></use>
                </g>
                <g id="n8">
                    <use fill="black" fill-opacity="1" filter="url(#filter-4)" xlink:href="#path-3"></use>
                    <use stroke="#444444" stroke-width="1" xlink:href="#path-3"></use>
                </g>
                <g id="n8-face">
                    <use fill="black" fill-opacity="1" filter="url(#filter-6)" xlink:href="#path-5"></use>
                    <use stroke="#444444" stroke-width="1" xlink:href="#path-5"></use>
                </g>
                <g id="n9">
                    <use fill="black" fill-opacity="1" filter="url(#filter-8)" xlink:href="#path-7"></use>
                    <use stroke="#444444" stroke-width="1" xlink:href="#path-7"></use>
                </g>
                <g id="n9-face">
                    <use fill="black" fill-opacity="1" filter="url(#filter-10)" xlink:href="#path-9"></use>
                    <use stroke="#444444" stroke-width="1" xlink:href="#path-9"></use>
                </g>
                <g id="n0">
                    <use fill="black" fill-opacity="1" filter="url(#filter-12)" xlink:href="#path-11"></use>
                    <use stroke="#444444" stroke-width="1" xlink:href="#path-11"></use>
                </g>
                <g id="n0-face">
                    <use fill="black" fill-opacity="1" filter="url(#filter-14)" xlink:href="#path-13"></use>
                    <use stroke="#444444" stroke-width="1" xlink:href="#path-13"></use>
                </g>
                <g id="dash">
                    <use fill="black" fill-opacity="1" filter="url(#filter-16)" xlink:href="#path-15"></use>
                    <use stroke="#444444" stroke-width="1" xlink:href="#path-15"></use>
                </g>
                <g id="dash-face">
                    <use fill="black" fill-opacity="1" filter="url(#filter-18)" xlink:href="#path-17"></use>
                    <use stroke="#444444" stroke-width="1" xlink:href="#path-17"></use>
                </g>
                <g id="plus-eq">
                    <use fill="black" fill-opacity="1" filter="url(#filter-20)" xlink:href="#path-19"></use>
                    <use stroke="#444444" stroke-width="1" xlink:href="#path-19"></use>
                </g>
                <g id="plus-eq-face">
                    <use fill="black" fill-opacity="1" filter="url(#filter-22)" xlink:href="#path-21"></use>
                    <use stroke="#444444" stroke-width="1" xlink:href="#path-21"></use>
                </g>
                <g id="backtick-tilde">
                    <use fill="black" fill-opacity="1" filter="url(#filter-24)" xlink:href="#path-23"></use>
                    <use stroke="#444444" stroke-width="1" xlink:href="#path-23"></use>
                </g>
                <g id="backtick-tilde-face">
                    <use fill="black" fill-opacity="1" filter="url(#filter-26)" xlink:href="#path-25"></use>
                    <use stroke="#444444" stroke-width="1" xlink:href="#path-25"></use>
                </g>
                <g id="n1">
                    <use fill="black" fill-opacity="1" filter="url(#filter-28)" xlink:href="#path-27"></use>
                    <use stroke="#444444" stroke-width="1" xlink:href="#path-27"></use>
                </g>
                <g id="n1-face">
                    <use fill="black" fill-opacity="1" filter="url(#filter-30)" xlink:href="#path-29"></use>
                    <use stroke="#444444" stroke-width="1" xlink:href="#path-29"></use>
                </g>
                <g id="n2">
                    <use fill="black" fill-opacity="1" filter="url(#filter-32)" xlink:href="#path-31"></use>
                    <use stroke="#444444" stroke-width="1" xlink:href="#path-31"></use>
                </g>
                <g id="n2-face">
                    <use fill="black" fill-opacity="1" filter="url(#filter-34)" xlink:href="#path-33"></use>
                    <use stroke="#444444" stroke-width="1" xlink:href="#path-33"></use>
                </g>
                <g id="n3">
                    <use fill="black" fill-opacity="1" filter="url(#filter-36)" xlink:href="#path-35"></use>
                    <use stroke="#444444" stroke-width="1" xlink:href="#path-35"></use>
                </g>
                <g id="n3-face">
                    <use fill="black" fill-opacity="1" filter="url(#filter-38)" xlink:href="#path-37"></use>
                    <use stroke="#444444" stroke-width="1" xlink:href="#path-37"></use>
                </g>
                <g id="n4">
                    <use fill="black" fill-opacity="1" filter="url(#filter-40)" xlink:href="#path-39"></use>
                    <use stroke="#444444" stroke-width="1" xlink:href="#path-39"></use>
                </g>
                <g id="n4-face">
                    <use fill="black" fill-opacity="1" filter="url(#filter-42)" xlink:href="#path-41"></use>
                    <use stroke="#444444" stroke-width="1" xlink:href="#path-41"></use>
                </g>
                <g id="n5">
                    <use fill="black" fill-opacity="1" filter="url(#filter-44)" xlink:href="#path-43"></use>
                    <use stroke="#444444" stroke-width="1" xlink:href="#path-43"></use>
                </g>
                <g id="n5-face">
                    <use fill="black" fill-opacity="1" filter="url(#filter-46)" xlink:href="#path-45"></use>
                    <use stroke="#444444" stroke-width="1" xlink:href="#path-45"></use>
                </g>
                <g id="n6">
                    <use fill="black" fill-opacity="1" filter="url(#filter-48)" xlink:href="#path-47"></use>
                    <use stroke="#444444" stroke-width="1" xlink:href="#path-47"></use>
                </g>
                <g id="n6-face">
                    <use fill="black" fill-opacity="1" filter="url(#filter-50)" xlink:href="#path-49"></use>
                    <use stroke="#444444" stroke-width="1" xlink:href="#path-49"></use>
                </g>
                <g id="n7">
                    <use fill="black" fill-opacity="1" filter="url(#filter-52)" xlink:href="#path-51"></use>
                    <use stroke="#444444" stroke-width="1" xlink:href="#path-51"></use>
                </g>
            </g>
        </g>
    </g>
</svg>